<svg xmlns="http://www.w3.org/2000/svg" version="1.1" xmlns:xlink="http://www.w3.org/1999/xlink" xmlns:svgjs="http://svgjs.dev/svgjs" viewBox="0 0 800 800" opacity="0.18"><defs><symbol id="bbburst-shape-1" viewBox="0 0 194 167"><path d="m97 0 96.129 166.5H.871L97 0Z"></path></symbol><symbol id="bbburst-shape-3" viewBox="0 0 131 127"><path d="m66 0 66 63.5L66 127 0 63.5 66 0Z"></path></symbol><symbol id="bbburst-shape-4" viewBox="0 0 149 143"><path d="M71.647 2.781c.898-2.764 4.808-2.764 5.706 0l15.445 47.534a3 3 0 0 0 2.853 2.073h49.98c2.906 0 4.115 3.719 1.764 5.427L106.96 87.193a2.999 2.999 0 0 0-1.09 3.354l15.445 47.534c.898 2.764-2.266 5.062-4.617 3.354l-40.435-29.378a3 3 0 0 0-3.526 0l-40.435 29.378c-2.351 1.708-5.515-.59-4.617-3.354L43.13 90.547a3 3 0 0 0-1.09-3.354L1.605 57.815c-2.35-1.708-1.142-5.427 1.764-5.427h49.98a3 3 0 0 0 2.853-2.073L71.647 2.781Z"></path></symbol><symbol id="bbburst-shape-8" viewBox="0 0 87 168"><path d="m12 12 31.2546 18.0749c16.4102 9.4902 20.014 31.6325 7.4603 45.8369L36.3296 92.1884c-12.5684 14.2206-8.9394 36.3916 7.5068 45.8636L75 156" stroke-width="14" stroke-linecap="round" stroke-linejoin="round"></path></symbol><symbol id="bbburst-shape-10" viewBox="0 0 145 145"><circle cx="72.5" cy="72.5" r="61.5" fill="none" stroke-width="22"></circle></symbol><symbol id="bbburst-shape-14" viewBox="0 0 185 109"><path d="M168 16.5C168 58.1975 134.197 92 92.5 92 50.8025 92 17 58.1975 17 16.5" stroke-width="33" stroke-linecap="round"></path></symbol></defs><use xlink:href="#bbburst-shape-14" width="20.898817799604622" opacity="0.8410816814320639" transform="matrix(0.8757197131845597,0.4828198255456713,-0.4828198255456713,0.8757197131845597,618.459942521691,107.33465025096484)" fill="none" stroke="#ffffff"></use><use xlink:href="#bbburst-shape-14" width="32.947246481147" opacity="0.4780257421604178" transform="matrix(0.9311554965161696,0.3646223269462878,-0.3646223269462878,0.9311554965161696,749.1450563735648,107.38601502391617)" fill="none" stroke="#ffffff"></use><use xlink:href="#bbburst-shape-8" width="26.028767279270287" opacity="0.4116699023150002" transform="matrix(0.9675284136980941,-0.2527622770249741,0.2527622770249741,0.9675284136980941,488.30436366496156,-154.85730936842953)" fill="none" stroke="#ffffff"></use><use xlink:href="#bbburst-shape-10" width="41.543782802889496" opacity="0.3872215808934877" transform="matrix(0.7683288319422491,-0.640055314801978,0.640055314801978,0.7683288319422491,-80.30001932435056,286.63385784190837)" fill="none" stroke="#ffffff"></use><use xlink:href="#bbburst-shape-4" width="21.499054019030815" opacity="0.5514025578224673" transform="matrix(0.7386153518490455,0.6741271111688883,-0.6741271111688883,0.7386153518490455,697.952730632998,295.9082400714293)" fill="#ffffff"></use><use xlink:href="#bbburst-shape-1" width="17.72696018397501" opacity="0.8910224592215537" transform="matrix(0.8197378311732019,0.5727389354177479,-0.5727389354177479,0.8197378311732019,644.6788633028793,23.66239202209175)" fill="#ffffff"></use><use xlink:href="#bbburst-shape-14" width="25.888830858146292" opacity="0.6680041001263162" transform="matrix(0.7434295493580184,0.6688142530937373,-0.6688142530937373,0.7434295493580184,591.5697148251145,227.87313940510035)" fill="none" stroke="#ffffff"></use><use xlink:href="#bbburst-shape-8" width="46.34463560391209" opacity="0.45265479947954157" transform="matrix(0.9095478155471207,0.4155992916662165,-0.4155992916662165,0.9095478155471207,325.6265045716451,-85.1180967082837)" fill="none" stroke="#ffffff"></use><use xlink:href="#bbburst-shape-8" width="43.348903290117164" opacity="0.43614491264994504" transform="matrix(0.998597022749105,0.05295267846505543,-0.05295267846505543,0.998597022749105,391.8744532687322,-254.20559042817837)" fill="none" stroke="#ffffff"></use><use xlink:href="#bbburst-shape-8" width="45.542626545190046" opacity="0.14950769193447788" transform="matrix(0.8194923116301708,0.5730901771789838,-0.5730901771789838,0.8194923116301708,856.7800767660253,-233.86385729644604)" fill="none" stroke="#ffffff"></use><use xlink:href="#bbburst-shape-1" width="30.105400258365634" opacity="0.476546554602049" transform="matrix(0.9358677781185916,-0.35235138977925257,0.35235138977925257,0.9358677781185916,317.62096291928543,-193.08249441390277)" fill="#ffffff"></use><use xlink:href="#bbburst-shape-4" width="37.510543921379266" opacity="-0.07813508289545656" transform="matrix(0.7845140725718529,0.6201110142036871,-0.6201110142036871,0.7845140725718529,973.1246702609686,420.8660817738726)" fill="#ffffff"></use><use xlink:href="#bbburst-shape-8" width="39.5951858771635" opacity="0.26642783951044535" transform="matrix(0.9512683153770947,0.30836438211898654,-0.30836438211898654,0.9512683153770947,608.2212066601923,326.7813779819185)" fill="none" stroke="#ffffff"></use><use xlink:href="#bbburst-shape-8" width="22.103580962950783" opacity="0.5095055389738473" transform="matrix(0.7168660032938904,-0.6972109675854532,0.6972109675854532,0.7168660032938904,326.6955250934321,64.9672730027703)" fill="none" stroke="#ffffff"></use><use xlink:href="#bbburst-shape-14" width="45.42999470986726" opacity="0.4100414632341003" transform="matrix(0.8777832666666685,-0.47905796805813844,0.47905796805813844,0.8777832666666685,16.44192978709296,-142.38440054093954)" fill="none" stroke="#ffffff"></use><use xlink:href="#bbburst-shape-4" width="30.93544480508606" opacity="0.35611228698669417" transform="matrix(0.7208886767288907,0.6930508753071948,-0.6930508753071948,0.7208886767288907,943.6309019755474,17.855704748596395)" fill="#ffffff"></use><use xlink:href="#bbburst-shape-3" width="19.40026171875524" opacity="0.9426378156265103" transform="matrix(0.7469668545657964,0.6648612773955785,-0.6648612773955785,0.7469668545657964,653.7153693038441,120.0529563352103)" fill="#ffffff"></use><use xlink:href="#bbburst-shape-8" width="18.847868603428303" opacity="0.8856225531258928" transform="matrix(0.994649400907674,0.10330812782160621,-0.10330812782160621,0.994649400907674,482.07739528546983,12.844092268057693)" fill="none" stroke="#ffffff"></use><use xlink:href="#bbburst-shape-3" width="36.73815431838487" opacity="0.10561853382116437" transform="matrix(0.764494216171779,-0.6446305868013843,0.6446305868013843,0.764494216171779,-234.54359690734827,-68.64413783342343)" fill="#ffffff"></use><use xlink:href="#bbburst-shape-3" width="46.45513578210657" opacity="0.2412177192202497" transform="matrix(0.7693160984202535,0.6388683281486404,-0.6388683281486404,0.7693160984202535,707.2934404193021,-256.930714314708)" fill="#ffffff"></use><use xlink:href="#bbburst-shape-8" width="23.475294703649418" opacity="0.9319000498075685" transform="matrix(0.7989608289492683,-0.6013830674409597,0.6013830674409597,0.7989608289492683,127.60407030641764,66.63106881261587)" fill="none" stroke="#ffffff"></use><use xlink:href="#bbburst-shape-4" width="32.38635667258101" opacity="0.5778837753139852" transform="matrix(0.9831715139626028,-0.1826849039534562,0.1826849039534562,0.9831715139626028,421.372946557196,-144.88429586380605)" fill="#ffffff"></use><use xlink:href="#bbburst-shape-4" width="36.870892513375885" opacity="0.2033119472368432" transform="matrix(0.7540073706455905,0.6568659566548742,-0.6568659566548742,0.7540073706455905,290.9785846085483,108.12738393817165)" fill="#ffffff"></use><use xlink:href="#bbburst-shape-4" width="27.652894501844187" opacity="0.5807095889583828" transform="matrix(0.7517235193361743,-0.6594783927293117,0.6594783927293117,0.7517235193361743,314.49325588560237,111.12013973747997)" fill="#ffffff"></use><use xlink:href="#bbburst-shape-3" width="21.05801513213092" opacity="0.829532345244698" transform="matrix(0.761940429443921,0.6476471122291931,-0.6476471122291931,0.761940429443921,574.7843546213128,97.26658992843016)" fill="#ffffff"></use><use xlink:href="#bbburst-shape-10" width="43.68699992840878" opacity="0.22119697899161217" transform="matrix(0.9584781382784144,0.28516601908773204,-0.28516601908773204,0.9584781382784144,211.48976350007217,-198.19161866431304)" fill="none" stroke="#ffffff"></use><use xlink:href="#bbburst-shape-14" width="25.59419529039968" opacity="0.6956383881071327" transform="matrix(0.9858838600533769,0.16743062589100452,-0.16743062589100452,0.9858838600533769,406.609732018262,-124.83517351826987)" fill="none" stroke="#ffffff"></use><use xlink:href="#bbburst-shape-1" width="40.545975882893785" opacity="0.17611716623643314" transform="matrix(0.7428914776243867,0.6694118705797316,-0.6694118705797316,0.7428914776243867,1010.4107407471623,186.6482034930483)" fill="#ffffff"></use><use xlink:href="#bbburst-shape-1" width="21.30524103995862" opacity="0.754865521481233" transform="matrix(0.9604452503836615,-0.27846888697925615,0.27846888697925615,0.9604452503836615,388.657981289753,21.836011088370583)" fill="#ffffff"></use><use xlink:href="#bbburst-shape-4" width="38.90182693937676" opacity="0.08401180358854665" transform="matrix(0.8469001109449182,0.5317520118264577,-0.5317520118264577,0.8469001109449182,800.8813334753629,408.7167975741764)" fill="#ffffff"></use><use xlink:href="#bbburst-shape-8" width="37.21762838739029" opacity="0.5019774265961687" transform="matrix(0.9607705597190068,-0.2773444277017773,0.2773444277017773,0.9607705597190068,63.7232201968591,105.62085966729677)" fill="none" stroke="#ffffff"></use><use xlink:href="#bbburst-shape-14" width="37.359355702609285" opacity="0.17174954411222154" transform="matrix(0.9853889991971362,-0.17031887817052557,0.17031887817052557,0.9853889991971362,85.04685611138848,-285.4335497185776)" fill="none" stroke="#ffffff"></use><use xlink:href="#bbburst-shape-10" width="38.93139477677648" opacity="0.0802938888336664" transform="matrix(0.812971513209131,-0.582303459298033,0.582303459298033,0.812971513209131,-62.157713249287724,440.7477291117828)" fill="none" stroke="#ffffff"></use><use xlink:href="#bbburst-shape-14" width="30.54357240893474" opacity="0.47590619096441633" transform="matrix(0.9098332464570217,-0.4149740517688743,0.4149740517688743,0.9098332464570217,124.79512835378429,258.155109758655)" fill="none" stroke="#ffffff"></use><use xlink:href="#bbburst-shape-1" width="31.787068996713828" opacity="0.6616928327448348" transform="matrix(0.9385347035250695,-0.34518489288946275,0.34518489288946275,0.9385347035250695,98.71639179429488,64.48327918508437)" fill="#ffffff"></use><use xlink:href="#bbburst-shape-8" width="29.86934944838385" opacity="0.4094771406674683" transform="matrix(0.9851374415348549,0.1717679285727122,-0.1717679285727122,0.9851374415348549,652.045078495374,180.55536614871312)" fill="none" stroke="#ffffff"></use><use xlink:href="#bbburst-shape-10" width="19.849691909609636" opacity="0.6542261127883038" transform="matrix(0.9997117427944917,0.024008984126782734,-0.024008984126782734,0.9997117427944917,547.9907391680428,46.943097527071586)" fill="none" stroke="#ffffff"></use><use xlink:href="#bbburst-shape-4" width="22.242936328261035" opacity="0.8215595316162084" transform="matrix(0.9795612429399938,0.20114614420827098,-0.20114614420827098,0.9795612429399938,539.848716627614,-32.86611775333773)" fill="#ffffff"></use><use xlink:href="#bbburst-shape-1" width="32.583090839971284" opacity="0.6564959357907164" transform="matrix(0.9522294764673671,-0.30538340515929135,0.30538340515929135,0.9522294764673671,112.94962712136012,-15.558737107910702)" fill="#ffffff"></use><use xlink:href="#bbburst-shape-14" width="25.23582425513102" opacity="0.8105336549630884" transform="matrix(0.9876780376914807,0.1564995011554543,-0.1564995011554543,0.9876780376914807,439.9439150031043,-81.66117845937339)" fill="none" stroke="#ffffff"></use><use xlink:href="#bbburst-shape-14" width="24.470897804648008" opacity="0.7547129594808141" transform="matrix(0.9860905732051647,-0.1662088488496018,0.1662088488496018,0.9860905732051647,319.43092339820794,117.99059395341999)" fill="none" stroke="#ffffff"></use><use xlink:href="#bbburst-shape-8" width="26.144157110530056" opacity="0.10501988974094856" transform="matrix(0.8016548685542866,0.5977871458330377,-0.5977871458330377,0.8016548685542866,455.8792274506965,-292.28338280173955)" fill="none" stroke="#ffffff"></use><use xlink:href="#bbburst-shape-4" width="25.586634868369153" opacity="0.7908728711175493" transform="matrix(0.9838219337474056,-0.17914910738687936,0.17914910738687936,0.9838219337474056,241.06440326774995,-48.459189735320535)" fill="#ffffff"></use><use xlink:href="#bbburst-shape-8" width="40.15170839360853" opacity="0.2869041465692843" transform="matrix(0.9957611475830058,-0.09197682840898184,0.09197682840898184,0.9957611475830058,626.8801049422246,153.57041004416305)" fill="none" stroke="#ffffff"></use><use xlink:href="#bbburst-shape-14" width="32.67716088644605" opacity="0.5752820061132035" transform="matrix(0.7988314268442178,0.6015549446941908,-0.6015549446941908,0.7988314268442178,490.4807001326292,203.87245932011842)" fill="none" stroke="#ffffff"></use><use xlink:href="#bbburst-shape-4" width="34.847911181083546" opacity="0.6366501984507138" transform="matrix(0.7432177176719804,0.6690496425067818,-0.6690496425067818,0.7432177176719804,672.2835925699574,-71.47475280172807)" fill="#ffffff"></use><use xlink:href="#bbburst-shape-10" width="42.45016137676805" opacity="0.32460802148613044" transform="matrix(0.9476467646765977,0.31932054333847204,-0.31932054333847204,0.9476467646765977,403.87373035878727,-271.50945250225493)" fill="none" stroke="#ffffff"></use><use xlink:href="#bbburst-shape-4" width="35.48326727420351" opacity="0.29692735224980527" transform="matrix(0.7617471014157811,0.6478744889904647,-0.6478744889904647,0.7617471014157811,495.50176501316366,362.334896615779)" fill="#ffffff"></use><use xlink:href="#bbburst-shape-8" width="20.852603246015278" opacity="0.7456568575194615" transform="matrix(0.862919236624977,0.505341855640879,-0.505341855640879,0.862919236624977,683.688552589143,119.56857306021328)" fill="none" stroke="#ffffff"></use><use xlink:href="#bbburst-shape-14" width="33.41168465256259" opacity="0.4716315898419393" transform="matrix(0.7105019672774389,-0.7036952142049064,0.7036952142049064,0.7105019672774389,-131.02816371863088,122.5447493351619)" fill="none" stroke="#ffffff"></use><use xlink:href="#bbburst-shape-1" width="50.59933418417601" opacity="0.18086471960489514" transform="matrix(0.8042349456405902,-0.5943114942607765,0.5943114942607765,0.8042349456405902,-128.06790964463008,344.3026182758324)" fill="#ffffff"></use><use xlink:href="#bbburst-shape-1" width="34.72513263658587" opacity="0.44034637834919954" transform="matrix(0.9999999312307642,-0.0003708617892642476,0.0003708617892642476,0.9999999312307642,477.9555156348764,233.09977062651024)" fill="#ffffff"></use><use xlink:href="#bbburst-shape-1" width="25.905407267187332" opacity="0.7351701966916775" transform="matrix(0.7721881681899124,0.6353939194763414,-0.6353939194763414,0.7721881681899124,549.5861928912335,155.46649237314466)" fill="#ffffff"></use><use xlink:href="#bbburst-shape-1" width="31.20943544778659" opacity="0.20223556969351042" transform="matrix(0.8320141429048566,0.5547544195464302,-0.5547544195464302,0.8320141429048566,576.7649621455514,-298.9821467166932)" fill="#ffffff"></use><use xlink:href="#bbburst-shape-4" width="44.46818485994743" opacity="0.04246512073693487" transform="matrix(0.7512958993100306,0.6599655079471445,-0.6599655079471445,0.7512958993100306,1002.3950230596362,-159.17500657425597)" fill="#ffffff"></use><use xlink:href="#bbburst-shape-8" width="34.56881199986484" opacity="0.5368211585382683" transform="matrix(0.8696247315969751,-0.4937133036438142,0.4937133036438142,0.8696247315969751,109.45897517951212,-132.59180791040075)" fill="none" stroke="#ffffff"></use><use xlink:href="#bbburst-shape-10" width="36.30547988747173" opacity="0.15651788428003965" transform="matrix(0.9960554517219914,0.08873295382719872,-0.08873295382719872,0.9960554517219914,777.0205553949655,-121.49396679490206)" fill="none" stroke="#ffffff"></use><use xlink:href="#bbburst-shape-8" width="24.773995445473485" opacity="0.7407002151740387" transform="matrix(0.9984840221063327,-0.0550423255173733,0.0550423255173733,0.9984840221063327,425.1253312008049,-99.08046468011281)" fill="none" stroke="#ffffff"></use><use xlink:href="#bbburst-shape-8" width="32.67483897016846" opacity="0.16097947573633342" transform="matrix(0.8612968852596631,0.5081020325111905,-0.5081020325111905,0.8612968852596631,859.3081418774798,310.95293961808824)" fill="none" stroke="#ffffff"></use><use xlink:href="#bbburst-shape-1" width="31.5415057022644" opacity="0.11303305841367373" transform="matrix(0.9201966374793714,0.3914564450506063,-0.3914564450506063,0.9201966374793714,715.06815565559,-333.90233269460373)" fill="#ffffff"></use><use xlink:href="#bbburst-shape-14" width="40.244124274784525" opacity="0.6170517770107424" transform="matrix(0.9248360082303599,0.3803660840302848,-0.3803660840302848,0.9248360082303599,406.71035220140794,-94.22881771231704)" fill="none" stroke="#ffffff"></use><use xlink:href="#bbburst-shape-10" width="24.873823338941456" opacity="0.5621766389244458" transform="matrix(0.9997307035714835,-0.023206040947705137,0.023206040947705137,0.9997307035714835,490.1396213096223,162.585755108365)" fill="none" stroke="#ffffff"></use><use xlink:href="#bbburst-shape-4" width="25.363837969177645" opacity="0.6949214499122516" transform="matrix(0.9640830949857399,0.2656008018864341,-0.2656008018864341,0.9640830949857399,618.6508528226573,-46.52384923592729)" fill="#ffffff"></use><use xlink:href="#bbburst-shape-1" width="43.72194253990983" opacity="-0.06662635040608311" transform="matrix(0.9534307509035396,-0.30161200777076597,0.30161200777076597,0.9534307509035396,-84.9472723103627,360.5456411143205)" fill="#ffffff"></use><use xlink:href="#bbburst-shape-10" width="34.57396889157722" opacity="0.3834032466553864" transform="matrix(0.8618548315907079,0.5071550544594351,-0.5071550544594351,0.8618548315907079,863.9029041496474,75.5775650025318)" fill="none" stroke="#ffffff"></use><use xlink:href="#bbburst-shape-8" width="41.54926323373991" opacity="-0.05486701456516907" transform="matrix(0.9816883969460611,0.19049380908962021,-0.19049380908962021,0.9816883969460611,117.90351121413273,-330.03118753659527)" fill="none" stroke="#ffffff"></use><use xlink:href="#bbburst-shape-8" width="35.950281164733155" opacity="0.1936041385024796" transform="matrix(0.995185043645085,0.09801392199647063,-0.09801392199647063,0.995185043645085,345.1031499959737,354.948604429912)" fill="none" stroke="#ffffff"></use><use xlink:href="#bbburst-shape-4" width="37.229049105754875" opacity="0.29654488314805094" transform="matrix(0.9043549336183891,-0.4267811547386774,0.4267811547386774,0.9043549336183891,391.4338022710228,307.3423210677033)" fill="#ffffff"></use><use xlink:href="#bbburst-shape-14" width="34.20107202930789" opacity="0.3057058449006059" transform="matrix(0.8290782615354543,-0.5591325748419144,0.5591325748419144,0.8290782615354543,-134.13873049718586,176.96462969648894)" fill="none" stroke="#ffffff"></use><use xlink:href="#bbburst-shape-14" width="26.70682058171342" opacity="0.5907329414145626" transform="matrix(0.9998485299495962,0.017404515437997235,-0.017404515437997235,0.9998485299495962,541.582252775849,109.51282152975637)" fill="none" stroke="#ffffff"></use><use xlink:href="#bbburst-shape-1" width="32.674729148916285" opacity="0.3430445016349355" transform="matrix(0.9555335328975706,-0.2948824638873721,0.2948824638873721,0.9555335328975706,419.7741264726926,-230.11701749398696)" fill="#ffffff"></use><use xlink:href="#bbburst-shape-10" width="29.190225588370453" opacity="0.06334717143426294" transform="matrix(0.827178805860656,0.5619388072868248,-0.5619388072868248,0.827178805860656,971.0966946265602,282.7619813159354)" fill="none" stroke="#ffffff"></use><use xlink:href="#bbburst-shape-8" width="27.640505223934213" opacity="0.6969180149754155" transform="matrix(0.9151179734630555,-0.403186178638195,0.403186178638195,0.9151179734630555,280.69413608718594,164.49895241360133)" fill="none" stroke="#ffffff"></use><use xlink:href="#bbburst-shape-8" width="36.59419967459834" opacity="0.38454754231569677" transform="matrix(0.894572560904907,0.4469227374793506,-0.4469227374793506,0.894572560904907,550.486048033727,310.6907729659441)" fill="none" stroke="#ffffff"></use><use xlink:href="#bbburst-shape-8" width="37.25534739936721" opacity="-0.07883245287269003" transform="matrix(0.7230211540256803,-0.690825890388724,0.690825890388724,0.7230211540256803,443.1964294576119,-229.6103494129785)" fill="none" stroke="#ffffff"></use><use xlink:href="#bbburst-shape-1" width="19.758512286739762" opacity="0.8314842234264975" transform="matrix(0.9137794173528276,-0.4062107537009905,0.4062107537009905,0.9137794173528276,191.47018357597292,104.7016317854177)" fill="#ffffff"></use><use xlink:href="#bbburst-shape-14" width="41.17279858819069" opacity="0.10993948362062156" transform="matrix(0.9729848688996555,0.230868891131569,-0.230868891131569,0.9729848688996555,116.4070578639961,189.84395300218836)" fill="none" stroke="#ffffff"></use><use xlink:href="#bbburst-shape-14" width="25.97142922456277" opacity="0.1839474245286581" transform="matrix(0.9597310403141017,0.2809205052281021,-0.2809205052281021,0.9597310403141017,546.8705822396284,376.7000754369348)" fill="none" stroke="#ffffff"></use><use xlink:href="#bbburst-shape-1" width="44.98569669461272" opacity="0.2691679295634175" transform="matrix(0.9953603250254969,-0.09621758345093293,0.09621758345093293,0.9953603250254969,18.888387120010236,-70.7798596034553)" fill="#ffffff"></use><use xlink:href="#bbburst-shape-4" width="42.92957149841972" opacity="0.2480838198853339" transform="matrix(0.9984869204249527,-0.054989723951792024,0.054989723951792024,0.9984869204249527,638.7020537020944,-184.97143866406034)" fill="#ffffff"></use><use xlink:href="#bbburst-shape-14" width="32.64816878211968" opacity="0.5685898794411564" transform="matrix(0.9798825178072338,0.19957517705304958,-0.19957517705304958,0.9798825178072338,626.6966153891751,-100.81446737527568)" fill="none" stroke="#ffffff"></use><use xlink:href="#bbburst-shape-1" width="33.8830953059704" opacity="0.2101926985484519" transform="matrix(0.9989765941511178,0.04523012644502223,-0.04523012644502223,0.9989765941511178,756.3724308388763,-12.433501963151457)" fill="#ffffff"></use><use xlink:href="#bbburst-shape-4" width="27.482737851491155" opacity="0.5937612266712713" transform="matrix(0.7770242261462361,0.6294706919165045,-0.6294706919165045,0.7770242261462361,618.445883007671,261.9588235671657)" fill="#ffffff"></use></svg>