<svg xmlns="http://www.w3.org/2000/svg" version="1.1" xmlns:xlink="http://www.w3.org/1999/xlink" xmlns:svgjs="http://svgjs.dev/svgjs" viewBox="0 0 1422 800" opacity="0.36"><defs><linearGradient x1="50%" y1="0%" x2="50%" y2="100%" id="ssscribble-grad"><stop stop-color="hsl(206, 75%, 49%)" stop-opacity="1" offset="0%"></stop><stop stop-color="hsl(331, 90%, 56%)" stop-opacity="1" offset="100%"></stop></linearGradient></defs><g fill="none" stroke-width="1" stroke="url(#ssscribble-grad)" stroke-linecap="round"><path d="M1571.98 260.75C1556.74 285.67 1511.93 310.31 1448.54 334.89 1380.86 359.84 1322.87 385.42 1285.71 412.32 1276.22 440.55 1293.57 471.26 1331.67 505.26 1383.08 541.59 1434.22 582.08 1474.24 626.94 1496.96 673.74 1495.81 724 1471.07 776.35 1426.45 826.96 1367.84 875.74 1303.36 919.56 1239.77 954.94 1184.51 980.14 1142.09 992.43 1114.92 992.27 1103.16 978.73 1104.49 953.44 1117.72 923.2 1137.08 890.48 1158.15 861.88 1180.21 846.24 1197.24 846.72 1207.13 867.38 1211.07 908.74 1206.08 967.16 1192.89 1035.85 1173.19 1104.33 1147.09 1162.47 1116.44 1199.79 1081.81 1210.29 1045.1 1191.72 1007.87 1147.96 969.07 1091.43 931.29 1033.67 895.4 989.69 859.17 973.28 825.38 988.79 794.42 1034.74 763.43 1101.53 735.37 1172.82 710.45 1230.23 685.52 1259.05 664.34 1250.72 646.78 1208.43 629.19 1143.52 615.15 1071.38 604.39 1008.8 593.28 969.31 584.89 959.69 578.47 979.14 570.49 1022.57 562.94 1076.54 554.37 1127.6 541.83 1166.21 525.82 1181.52 504.6 1170.52 476.87 1135.19 442.13 1080.42 399.78 1015 351.48 946.96 297.36 885.59 239.63 837.11 182.91 804.96 129.32 790.26 83.44 790.76 49.44 804.97 30.09 826.48 27.84 850.1 40.83 874.54 68.34 893.07 105.98 903.31 144.51 906.29 178.97 899.13 201.36 882.88 203.87 859.2 184.71 828.86 143.73 794.08 85.43 755.22 18.07 714.81 -47.39 674.55 -99.56 633 -128.81 593.18 -128.94 555.87 -101.4 518.46 -50.74 483.94 11.99 452.59 70.46 421.29 112.74 393.09 127.98 368.17 110.68 343.25 66.84 322.19 7.65 304.95 -79.62 281.09 -112.54 251.98 -43.56 245.14 22.43 240.18 89.5 236.33 146.77 232.01 186.21 223.6 203.58 211.83 199.39 194.58 175.63 169.92 140.35 137.35 101.62 95.97 64.38 47.32 37.79 -8.29 26.06 -68.39 29.78 -127.66 50.58 -183.41 85.84 -230.28 132.75 -263.45 186.98 -279.86 243.98 -277.15 301.62 -258.09 355.33 -224.48 402.99 -182.39 444.49 -142.91 478.31 -112.29 505.11 -99.19 525.38 -110.41 540.54 -146.02 552.37 -202.89 560.27 -272.22 567.31 -342.41 574.91 -399.91 581.02 -433.43 589.21 -435.72 600.19 -405.86 610.86 -352.9 624.86 -288.1 642.43 -228.11 659.98 -190.74 681.17 -184.92 706.09 -213.73 731.01 -271.13 759.08 -339.9 790.06 -401.77 821.04 -442.8 854.87 -450.98 891.2 -424.97 927.22 -371.37 965.2 -301.72 1004.31 -231.11 1041.93 -173.29 1079.15 -138.49 1114.43 -130.71 1145.8 -149.76 1172.75 -187.59 1193.41 -233.84 1210.47 -297.44 1192.78 -311.07 1162.49 -252.37 1141.16 -194.35 1121.15 -130.51 1106.9 -67.61 1104.31 -9.66 1114.61 38.1 1140.31 73.91 1181.47 97.28 1235.81 109.18 1299 112.21 1363.69 106.8 1423.12 97.75 1469.11 88.05 1495.53 76.63 1498.46 68.49 1477.3 64.87 1438.29 63.2 1387.45 66.97 1335.51 75.85 1296.13 87.08 1276.97 102.53 1284.46 121.31 1319.88 141.41 1376.76 163.65 1444.19 187.25 1508.31 211.22 1554.68 235.83 1571.98 260.75Q1571.98 260.75 1571.98 260.75" opacity="0.17"></path><path d="M1533.97 301.22C1520.3 324.83 1479.66 350.63 1421.12 378.62 1356.65 406.83 1298.24 437.62 1256.18 471.15 1237.55 505.28 1243.48 542.51 1270.54 582.75 1313.88 623.39 1362.57 666.53 1406.96 711.28 1440.91 754.57 1456.32 797.28 1450.82 837.37 1425.57 872.12 1382.92 900.71 1328.55 920.8 1267.85 931.84 1207.64 932.29 1153.4 921.77 1108.44 903.96 1075.8 878.8 1055.78 849.82 1049.77 814.34 1084.99 814.7 1108.69 868.34 1123.03 923.89 1132.05 988.25 1134.97 1053.58 1129.89 1130.84 1084.87 1145.77 1049.83 1080.66 1023.18 1025.83 995.15 975.59 966.8 942.13 937.51 935.65 908.89 957.99 881.62 1006.23 854.13 1071.13 828.42 1138.37 804.81 1192.26 781.2 1220.43 760.25 1215.23 741.75 1178.86 723.03 1120.28 706.33 1051.98 691.1 988.42 674.92 942.08 659.22 920.71 643.02 926.13 624.52 956.39 603.99 1001.98 580.27 1052.04 552.65 1098.15 520.42 1128.77 482.89 1138.29 441.21 1125.75 394.56 1091.55 343.83 1040.99 292.22 979.91 240.12 916.16 190.46 856.67 147.14 805.86 112.06 768.12 88.45 744.45 77.53 735.1 80.7 737.46 97.78 748.01 124.15 765.84 158.06 785.05 194.18 802.35 233.85 823.26 215.04 824.25 146.46 804.14 84.77 784.21 20.71 759.94 -35.95 732.86 -76.33 703.28 -93.53 672.67 -84.01 642.2 -51.07 610.79 0.38 580.57 60.18 552.24 114.06 523.71 152.3 497.47 165.97 473.86 150.37 450.25 110.62 429.83 55.95 412.37 -3.8 394.72 -54.39 379.62 -85.85 366.5 -93.54 352.44 -74.54 339.31 -32.71 326.06 24.83 310.31 89.06 292.64 150.23 271.65 200.37 246.19 233.52 215.62 247.45 179.01 241.71 137.35 220.7 89.87 190.14 37.5 153.75 -16.18 120.09 -70.54 94.42 -122.15 78.4 -166.48 76.49 -201.26 88.71 -222.85 113.59 -230.12 149.75 -221.85 193.9 -198.93 244.13 -167.31 296.49 -129.86 348.1 -93.36 398.58 -67.38 444.78 -56.06 485.9 -64.58 522.73 -95.16 554.23 -145.02 581.16 -208.44 604.16 -275.8 624.04 -336.76 641.99 -380.35 657.65 -399.09 672.93 -389 688.77 -351.76 703.69 -297.32 720.17 -235.97 738.74 -182.06 757.1 -150.35 777.98 -147.55 801.59 -175.72 825.21 -229.61 850.98 -294.45 878.61 -354.69 906.03 -398.26 934.87 -413.65 964.47 -398.06 993.15 -355.48 1021.62 -293.97 1048.8 -225.82 1073.68 -163.08 1095.74 -116.32 1113.65 -91.73 1127.64 -91.98 1136.03 -113.44 1137.97 -149.29 1135.62 -193.57 1127.05 -235.04 1112.96 -266.01 1097.74 -282.97 1080.52 -280.88 1064.07 -260.21 1053.71 -223.34 1049.97 -173.96 1056.03 -117.49 1074.76 -57.56 1106.14 0.01 1150.04 51.6 1203.59 95.91 1263.53 130.59 1324.51 155.94 1384.24 177.01 1241.41 181.8 1254.35 195.45 1294.92 206.45 1352.46 220.97 1416.88 238.75 1476.22 256.75 1518.37 277.61 1533.97 301.22Q1533.97 301.22 1533.97 301.22" opacity="0.47"></path><path d="M1495.98 400.25C1483.81 422.55 1447.19 447.86 1393.55 475.95 1332.78 504.03 1275 534.81 1229.48 567.96 1203.12 600.8 1198.39 635.52 1214 671.33 1247.31 705.79 1290.05 739.99 1334.21 772.55 1388.27 814.22 1395.53 863.31 1345.14 864.42 1295.56 856.36 1239.96 840.97 1183.52 819.69 1129.59 797.73 1082.6 775.38 1044.71 756.48 1016.86 746.78 999.26 747.52 990.59 761.72 990.63 790.86 996.14 833.86 1004.62 888.3 1016.6 948.72 1027.77 1009.7 1036.51 1063.93 1046.5 1115.04 1041.11 1082.8 1026.09 1011.86 1012.9 961.75 996.65 920.61 978.12 897.83 958.62 900.5 937.72 928.55 916.02 978.17 894.05 1040.73 871.79 1103.83 849.49 1154.25 827.2 1181.69 805.39 1179.37 783.92 1148.68 762.19 1096.6 740.29 1033.03 717.74 970.16 694.22 919.09 669.15 887.87 641.89 880.1 612.76 896.23 580.55 930.33 544.8 974.35 506.87 1021.68 465.36 1061.42 420.67 1086.77 375.31 1095.03 328.59 1083.05 282.25 1052.75 239.4 1007.57 200.7 952.61 168.76 893.88 145.53 835.62 132.5 783.47 131.13 740.56 139.79 708.33 158.95 687.64 186.55 677.29 216.66 676.91 247.43 683.1 273.79 692.97 289.08 706.8 291.24 719.87 277.26 730.26 246.17 739.68 200.29 744.32 143.75 743.89 83.23 740.79 25.98 732.76 -19.9 720.51 -48.1 706.06 -54.02 688.5 -36.27 668.73 0.65 647.86 51.86 625.82 108.22 603.31 157.45 580.52 191.81 557.81 203.98 535.52 190 513.22 154.19 491.85 104.11 471.21 47.64 450.29 -2.93 429.53 -38.63 408.35 -54.77 386.06 -47.14 362.32 -17.42 336.32 29.6 308.11 87.43 276.53 147.89 241 203.8 202.79 248.58 160.47 278.29 114.43 290.75 67.43 287.18 18.82 270.74 -29.37 243.57 -73.62 212.44 -113 182.38 -144.52 146.07 -171.05 138.82 -147.17 170.21 -103.09 203.12 -70.69 242.58 -40.55 285.99 -18.59 332.68 -11.5 379.55 -21.12 424.86 -49.26 469.36 -94.51 510.56 -152.41 548.11 -216.08 583.39 -276.45 615.13 -325.07 643.81 -353.79 670.59 -358.61 695.23 -338.05 718.4 -295.59 740.59 -241.33 762.22 -184.32 783.76 -136.65 805.05 -110.35 826.76 -110.29 849.06 -137.71 871.36 -188.13 893.71 -248.97 915.86 -307.11 937.75 -352.33 958.92 -373.83 978.78 -367.91 997.66 -336.52 1014.33 -284.74 1028.01 -222.05 1039.78 -158.51 1047.65 -104.02 1051.01 -65.83 1052.11 -48.35 1048.59 -51.6 1040.71 -72.11 1032 -106.44 1020.69 -145.82 1008.36 -183.02 996.19 -223.33 1007.87 -209.56 1042.79 -157.09 1079.69 -108.96 1125.9 -55.99 1179.36 -2.13 1235.74 51.04 1291.7 99.63 1342.09 142.05 1381.75 178.46 1406.93 207.72 1414.36 230.62 1404.53 247.59 1377.93 260.07 1338.37 269.65 1294.24 275.73 1250.94 281.13 1216.49 287.13 1199.35 291.77 1202.37 298.37 1227.11 307.58 1271.42 316.48 1328.56 328.49 1389.44 343.85 1443.93 359.19 1482 377.95 1495.98 400.25Q1495.98 400.25 1495.98 400.25" opacity="0.73"></path><path d="M1457.99 499.24C1446.99 520.22 1414.05 543.09 1365.18 567.55 1308.5 591.81 1252.38 617.25 1204.93 643.27 1172.59 668.43 1158.61 693.28 1163.24 716.85 1185.55 738.35 1219.77 757.22 1259.7 772.31 1342.98 785.43 1289.92 741.08 1218.79 714.55 1166 701.63 1114.22 693.76 1066.5 693.88 1024.16 705.1 989.42 727.66 962.6 762.16 943.72 807.05 931.94 860.15 925.76 917.57 925.3 973.48 927.71 1023.21 931.28 1060.97 937.19 1082.62 941.97 1085.37 944.63 1068.52 947.36 1036.3 946.97 992.23 943.24 943.52 934.94 885.05 901.64 884.32 877.92 950.78 861.11 1010.57 842.16 1069.49 821.17 1116.48 800.19 1143.07 777.66 1143.33 753.59 1118 729.34 1072.47 703.24 1014.35 675.1 953.68 646.41 900.05 615.3 861.23 581.64 841.84 547.3 843.99 510.41 864.76 471.31 898.84 432.28 941.63 392.03 983.85 351.67 1018.73 313.64 1042.88 277.77 1050.93 245.89 1042.1 219.72 1017.75 200.27 979.79 189.12 932.37 185.9 878.82 191.82 824.15 206.66 772.3 226.87 725.14 252.46 685.79 280.47 655.05 315.13 626.14 327.13 613.03 290.18 619.17 247.94 626.47 196.03 632.71 139.27 636.7 83.94 640.69 36.07 641.3 1.91 638.27 -14.56 634.37 -10.59 626.88 13.63 616.09 52.99 604.63 102.93 590.36 155.46 573.61 200.17 556.66 230.99 537.63 241.99 516.64 229.78 495.65 197.97 473.21 152.62 449.29 99.91 425.16 50.26 399.15 11.59 371.03 -11.63 342.25 -14.47 310.85 3.09 276.68 38.18 241.63 86.69 203.76 142.28 163.4 198.93 123.03 250.37 81.33 291.89 39.57 320.34 0.48 334.5 -35.99 335.23 -67.77 323.15 -92.96 302.61 -110.4 277.56 -118.43 249.43 -117.72 223.99 -107.19 204.13 -87.54 189.82 -63.19 184.54 -34.72 188.44 -5.95 200.31 16.68 220.45 31.28 247.22 33.77 279.65 20.76 315.94 -7.61 354.28 -50.48 394.87 -104.07 435.25 -163.39 474.31 -221.57 513.38 -271.04 550.19 -305.47 584.42 -319.48 617.92 -311.94 648.88 -283.15 677.42 -237.62 705.4 -185.06 731.38 -133.1 755.53 -91.72 779.51 -70.54 801.99 -72.91 822.98 -99.49 843.96 -146.48 862.96 -203.26 879.86 -258.91 903.74 -318.14 937.49 -293.13 946.03 -217.81 949.87 -157.26 950.34 -99.52 947.65 -51.92 942.49 -12.5 928.61 -41.98 927.1 -90.73 932.68 -126.3 943.78 -156.04 961.92 -176.15 988.05 -185.87 1022.15 -182.23 1063.96 -165.95 1111.33 -138.57 1162.97 -101.88 1215.87 -58.93 1265.7 -11.2 1309.61 37.69 1343.55 85.36 1364.68 131.73 1370.86 174.01 1361.13 211.58 1338.34 245.31 1304 274.23 1262.73 298.98 1222.53 320.27 1187.68 338.67 1164.43 355.25 1158.7 369.75 1171.55 383.78 1202.88 398.2 1249.64 411.76 1305.46 426.59 1362.33 443.21 1411.83 459.64 1445.77 478.24 1457.99 499.23Q1457.99 499.24 1457.99 499.24" opacity="0.45"></path><path d="M1419.99 538.98C1410.34 558.65 1381.12 578.02 1337.12 596.86 1284.89 615.47 1231.2 633.12 1183.01 649.29 1135.13 671.19 1141.19 699.22 1185.57 702.8 1223.63 702.03 1260.37 697.19 1291.16 688.54 1319.45 673.56 1294.87 642.03 1246.15 635.3 1203.35 639.69 1156.55 651.64 1108.75 672.6 1061.28 702.91 1017.17 742.1 977.86 788.93 943.49 840.11 915.19 893.19 892.64 944.02 858.34 1020.63 840.08 942.18 835.13 877.02 829.02 832.69 804.24 855.65 784.86 923.5 770.95 980.18 754.19 1034.87 734.52 1078.48 714.84 1104.13 692.72 1106.65 668.3 1086.36 643.86 1047.31 617.09 995.17 588.2 938.04 559.34 883.91 528.52 839.89 496.13 811 464.28 800.33 431.53 807.27 398.7 828.9 367.68 862.56 337.97 901.11 310.83 938.63 278.01 983.38 246.99 992.78 252.71 954.93 263.87 915.88 280.96 870.19 302.64 821.39 324.66 771.27 346.9 723.53 366.47 680.22 378.81 641.71 383.19 609.7 377.2 584.12 359.02 564.63 329.22 550.59 288.75 540.72 240.41 535.22 187.64 531.84 135.15 529.26 50.26 523.91 130.72 496.88 203.01 478.05 243.11 464.45 270.34 447.84 279.99 428.17 269.2 408.49 241.02 386.22 200.26 361.5 151.64 336.75 103.9 309.51 63.82 279.96 35.36 250.45 23.78 218.82 30.19 185.49 53.15 152.77 90.59 119.14 137.97 85.53 190.65 54.01 243.3 24.14 291.21 -2.65 277.19 43.6 278.42 8.07 312.01 -63.75 339.6 -118.82 369.68 -173.4 401 -221.49 434.08 -257.55 467 -277.3 498.98 -277.74 531.45 -259.95 562.32 -225.34 591.19 -178.81 620.09 -129.27 646.85 -82.92 671.28 -47.76 695.68 -31.35 717.8 -35.85 737.47 -61.49 757.15 -105.1 773.92 -157.79 787.84 -210.58 807.24 -271.65 831.98 -271.85 837.99 -211.73 841.71 -157.4 843.73 -100.73 844.75 -48.43 849.12 8.86 869.8 29.09 892.17 -1.27 914.13 -31.61 941.85 -62.79 975.69 -90.74 1014.58 -114.34 1058.39 -128.97 1105.72 -133.5 1153.59 -128.67 1200.65 -113.6 1243.92 -89.84 1280.14 -58.66 1307.22 -21.98 1322.61 17.93 1325.81 60.73 1315.89 103.62 1293.63 145.14 1263.28 186.09 1226.66 224.18 1188.41 259.06 1155.44 292.11 1130.8 321.97 1118.95 348.99 1123.63 374.43 1144.6 397.77 1180.65 419.54 1228.31 440.46 1281.85 460.58 1334.35 480.29 1379.01 499.77 1409.19 519.29 1419.99 538.97Q1419.99 538.98 1419.99 538.98" opacity="0.64"></path><path d="M1381.99 496.07C1373.61 514.43 1347.93 530.61 1308.72 544.56 1261.19 558.37 1210.7 569.72 1163.05 578.43 1097.84 592.78 1163.58 586.35 1213.03 578.03 1253.51 573.1 1275.04 581.47 1252.5 602.08 1225.48 624.78 1191.36 654.47 1152.44 691.13 1109.91 733.1 1066.44 779.58 1023.89 828.35 982.5 875.78 944.39 919.74 910.19 956.72 879.44 983.73 852.95 998.59 830.37 999.51 811.23 987.55 795.12 962.92 781.22 928.2 769.7 889.35 759.23 849.51 749.04 814.22 740.09 790.13 730.51 779.78 719.77 785.93 709.5 809.49 697.55 847.77 683.62 896.51 669.79 949.75 653.76 1000.2 635.4 1040.48 617.03 1065.08 596.77 1069.56 574.83 1053.93 553 1021.19 529.7 975.41 505.33 922.91 481.44 870.2 457 823.43 432.64 787.52 409.51 765.99 387.37 759.82 367.06 768.02 349.14 789.52 334.22 819.45 323.2 853.26 320.41 930.33 372.49 915.1 400.08 864.89 414.93 823.53 426.13 779.52 431.46 735.18 428.15 691 416.06 649.63 394.29 612.09 363.01 577.91 323.4 548.38 277.45 523.22 228.53 501.84 179.75 484.04 135.26 468.95 86.69 451.09 78.25 421.54 120.66 406.27 161.23 396.28 206.31 384.59 250.22 370.84 285.79 357.22 309.61 341.3 317.99 322.94 308.54 304.58 283.81 284.21 247.57 262.06 203.33 240.03 158.26 216.48 118.06 191.84 86.04 167.76 67.41 143.18 63.97 118.83 75.21 95.9 100.75 74.24 137.66 54.79 182.59 38.06 231.54 24.83 280.36 16.05 325.96 11.05 365.01 11.32 395.6 17.18 422.22 33.44 418.52 85.83 397.4 112.52 369.51 127.2 323.96 103.94 313.19 59.46 311.17 17.69 314.42 -30.69 322.44 -82.29 333.94 -132.48 349.3 -177.38 367.61 -212.34 388.3 -234.01 410.77 -239.8 434.17 -228.64 458.79 -203.1 483.43 -165.1 507.47 -119.48 531.98 -74.07 555.38 -33.69 577.28 -4.58 599.28 7.42 619.57 1.09 637.93 -23.49 656.3 -63.76 672.3 -112.35 686.07 -161.96 705.86 -223.52 737.19 -245.95 750.58 -201.94 760.5 -156.3 770.64 -104.5 781.77 -52.18 795.28 -4.01 810.95 35.58 829.61 63.93 851.74 79.38 877.76 82.33 908.07 74.44 941.9 56.58 979.72 33.07 1020.92 7.32 1063.41 -19.76 1106.97 -43.32 1149.75 -61.22 1189.07 -73.81 1223.74 -78.29 1251.45 -74.71 1270.58 -64.21 1279.74 -46.55 1277.9 -23.15 1266.43 5.22 1245.18 37.07 1215.96 70.86 1183.52 106.84 1149.54 142.86 1118.06 177.94 1094.61 213.31 1081.02 246.84 1080.13 278.17 1093.94 309.07 1121.33 337.67 1160.42 363.99 1207.71 389.91 1258.18 413.81 1306.06 435.76 1345.93 457.58 1372.53 477.69 1381.99 496.06Q1381.99 496.07 1381.99 496.07" opacity="0.09"></path><path d="M1343.99 396.02C1336.79 413.07 1314.46 427.42 1279.93 439.16 1237.26 450.9 1190.59 460.08 1144.64 466.82 1055.56 483.87 1132.91 505.33 1209.36 540.41 1232.81 586.62 1220.7 652.62 1178.43 735.62 1113.83 821.53 1038.49 898.74 964.07 947.14 892.41 955.34 831.66 919.37 782.01 850.84 739.6 783.91 704.1 743.71 671.75 755.51 656.44 783.41 641.06 822.78 625.29 869.74 609.67 919.27 593.39 965.49 576.34 1002.48 559.29 1025.93 541.87 1032.06 524.27 1020.69 506.83 993.99 489.49 954.74 472.64 907.75 408.84 775.19 446.72 905.55 479.81 881.3 477.39 825.34 449.05 752.11 390.1 675.54 308.09 599.05 217.59 533.01 142.51 478.92 104.42 432.48 116.57 394.37 176.71 360.57 216.08 344.65 257.73 328.85 297.03 312.83 328.19 296.98 348.79 280.59 355.99 263.54 347.79 246.49 326.32 229.18 294.5 211.82 254.8 194.62 213.06 177.7 173.9 161.46 114.97 130.94 104.56 107.01 144.28 94.35 220.41 89.33 311.05 99.2 392.39 123.13 463.54 159.28 443.96 142.03 408.7 40.19 389.97 -52.39 385.94 -139.03 395.99 -191.69 413.36 -194.22 440.47 -143.78 472.83 -60.19 489.87 -19.78 507.35 14.45 524.9 37.78 542.59 45.79 560.06 37.94 577.11 14.5 594.16 -22.48 610.4 -66.96 625.92 -113.12 641.58 -156.71 656.83 -191.08 671.94 -212.4 703.9 -211.05 738.83 -151.45 780.55 -59.52 829.61 34 889.8 100.56 961.09 127.88 1035.51 114.99 1111.27 78.22 1176.8 37 1220.32 -1.29 1233.85 -18.33 1211.67 -11.98 1165.85 12.73 1105.79 54.42 1054.65 104.44 1039.92 161.43 1069.73 217.39 1141.82 267.7 1187.55 293.11 1234.31 316.67 1277.39 338.13 1312.58 359.61 1335.79 378.96 1343.99 396.01Q1343.99 396.02 1343.99 396.02" opacity="0.61"></path><path d="M1305.99 298.34C1281.21 329.82 1213 354.49 1127.35 373.95 1051.72 395.29 1006.66 415.34 999.56 438.49 1029.22 469.63 1077.91 510.79 1126.98 565.52 1167.63 630.57 1183.35 706.16 1172.38 784.29 1138.99 851.16 1087.17 897.7 1026.49 911.06 959.61 891.18 895.34 840.18 837.75 773.9 782.74 722.17 735.26 701.97 694.47 728.35 655.22 798.59 620.12 888.99 588.64 964.48 557.16 994.97 530.79 965.86 510.67 891.97 492.09 801.32 482.3 724.26 482.75 682.14 485.79 683.42 498.22 718.16 516.58 767.55 528.74 819.58 535.36 851.95 527.5 857.42 497.2 838.33 444.16 795.66 370.73 739.26 288.89 673.13 211.96 607.02 159.23 546.59 143.26 487.94 170.39 437.33 233.88 394.37 307.38 352.96 369.21 316.76 393.99 285.28 367.46 253.8 304.54 228.53 230.94 210.56 168.31 194.15 142.67 187.49 160.23 191.59 214.27 197.46 291.85 211.73 373.62 229.34 446.34 237.22 498.27 234.71 527.37 212.54 534.06 165.82 526.56 96.13 513.85 11.32 486.96 -105.95 542.48 71.6 587.23 52.5 618.71 -22.98 653.65 -107 692.6 -165.1 733.12 -179.35 780.26 -141.24 834.94 -66.43 892.36 22.91 956.61 102.14 1023.75 154.81 1084.98 174.23 1137.69 165.02 1172.26 139.41 1184.43 102.54 1169.82 72.14 1129.88 55.61 1080.9 49.4 1031.55 60.08 1000.57 83.49 1006.07 114.9 1049.63 152.11 1124.4 190.14 1210.14 230.05 1279.45 266.85 1305.99 298.33Q1305.99 298.34 1305.99 298.34" opacity="0.88"></path><path d="M1267.98 260.9C1247.43 289.76 1188.71 318.54 1111.33 348.32 1036.49 379.92 981.96 415.85 957.23 458.49 965.22 506.17 996.36 562.89 1037.55 627.6 1082.49 692.89 1114.74 758 1128.37 813.87 1125.45 851.58 1103.07 865.13 1066.8 849.14 1020.02 811.49 968.29 756.82 917.02 701.1 863.89 667.62 815.3 666.17 773 703.99 730.98 774.76 695.19 858.1 666.33 926.27 637.47 956.4 616.91 935.98 604.52 874.84 592.39 793.19 588.49 714.45 591.61 658.43 592.87 635.97 597.08 645.82 599.39 677.48 591.18 723.67 572.13 765.32 537.23 792.12 485.78 804.1 419.32 794.56 344.32 767.73 273.09 727.86 216.07 679.74 186.92 629.78 190.5 576.57 228.61 527.04 292.31 483.74 358.56 440.44 411.43 403.89 431.98 375.03 409.2 346.18 354.82 326.38 288.17 315.25 206.98 302.65 247.39 304.62 348.43 300.32 423.26 282.67 488.91 250.79 539.17 200.99 572.61 136.36 590.28 60.5 597.36 -15.73 591.68 -95.3 586.32 -45.83 600.45 55.83 612.95 105.84 633.58 120.41 662.44 90.28 691.29 22.11 727.01 -55.37 768.94 -115 811.17 -141.69 859.78 -123.82 913.07 -69.18 964.68 7.68 1017.04 88.23 1064.78 155.92 1114.05 212.29 1102.16 192.84 1041.65 160.19 983.6 135.35 1006.64 148.73 1107.19 179.84 1184.98 204.48 1245.2 232.05 1267.98 260.9Q1267.98 260.9 1267.98 260.9" opacity="0.37"></path><path d="M1229.99 306.47C1212.74 332.71 1162.77 364.15 1094.39 400.73 1023.45 438.15 964.25 481.95 926.53 531.84 915.11 582.36 926.38 637.22 952.57 692.54 990.16 741.43 1025.62 782.16 1051.79 807.69 1069.85 815.57 1072.58 802.14 1061.53 767.83 1040.63 724.3 1010.57 676.08 975.82 636.62 936.93 622.14 898.03 636.9 862.03 682.73 825.29 751.82 793.12 827.52 766.89 888.48 740.66 917.84 721.6 905.1 708.86 856.47 695.39 785.96 686.57 710.54 680 647.05 669.29 606.25 656.14 592.21 636.6 601.11 607.22 629.94 566.83 665.4 514.39 697.7 453.84 726.32 387.27 740.89 322.37 740.81 268.86 730.41 234.06 708.36 226.26 679.13 244.75 644.66 289.01 608.35 349.83 573.69 408.09 537.94 452.74 506.16 469.99 479.92 451.26 453.69 405.52 434.25 346.82 420.52 286.24 405.71 242.83 394.3 225.53 383.31 234.68 367.07 270.64 345.92 324.95 315.89 390.26 275.54 456.79 223.31 516.96 160.3 568.73 93.62 608.32 27.06 636.92 -29.07 655.65 -65.3 668.12 -74.78 678.34 -53.22 684.47 -8.97 692.99 51.51 706.29 111.89 718.88 150.41 737.88 157.85 764.11 128.5 790.34 67.54 822.57 -2.83 859.45 -61.81 895.62 -97.52 934.82 -97.36 974.15 -63.66 1009.4 -4.97 1040.13 66.77 1061.84 137.62 1073.68 199.25 1071.75 243.78 1054.37 270.28 1028.59 279.14 993.16 276.08 955.16 267.62 928.17 252.72 915.73 241.07 925.8 236.01 962.32 231.59 1020.66 235.5 1091.36 247.56 1160.18 260.45 1211.25 280.23 1229.99 306.46Q1229.99 306.47 1229.99 306.47" opacity="0.81"></path><path d="M1191.98 407.33C1178.17 430.94 1136.82 460.9 1078.08 496.2 1013.33 531.25 953.43 570.9 907.23 613.03 879.89 652.57 871.79 690.93 879.44 723.87 901.58 748.15 928.92 761 955.07 758.75 981.02 744.44 998.2 715.64 1005.25 676.05 1002.12 620.29 950.65 599.36 913.76 663.41 887.62 728.84 862.11 796.46 838.5 850.36 814.89 878.54 794.29 872.4 775.91 835.62 756.46 777.55 737.14 709.62 715.91 645.05 690.72 593 660.3 559.88 622.82 546.4 579.38 552.37 528.3 570.66 471.41 594.11 414.31 622.45 358.98 645.61 312.25 660.21 280.02 670.31 266.95 670.2 276.98 661.38 305.88 648.39 352.34 629.69 407.97 607.77 457.6 584.59 494.17 560.56 507.98 536.95 492.53 513.34 454.7 491.27 404.39 469.92 348.76 447.32 302.93 423.07 275.12 395.14 266.47 363.04 280.93 324.27 314.35 277.79 362 226.79 417.85 169.74 475.08 110.45 531.77 56.06 582.39 9.78 625.24 -20.78 662 -31.88 691.71 -19.94 716.29 14.79 736.89 62.05 755.73 116.54 774.87 165.5 792.94 193.18 813.38 194.55 836.99 166.38 860.6 112.49 886.26 49.65 912.72 -6.67 938.11 -47.89 962.22 -61.91 982.54 -47.74 998.87 -9.86 1008.04 45.73 1007.68 108.86 1001.21 173.04 984.49 229.83 958.74 275.09 918.53 318.81 876.06 345.15 905.37 346.79 950.49 345.57 1009.75 348.88 1074.5 358.35 1133.91 367.57 1176.53 383.72 1191.98 407.33Q1191.98 407.33 1191.98 407.33" opacity="0.66"></path><path d="M1153.99 503.99C1142.99 524.98 1109.47 549.45 1060.42 576.23 1003.7 602.2 946.99 628.81 897.53 653.73 842.07 690.65 888.6 634.63 911.23 585.92 925.64 551.68 916.72 576.71 897.16 646.14 881.81 706.23 863.33 765.49 842.35 812.48 821.36 839.07 798.86 838.4 774.62 812.45 749.6 767.3 721.43 709.9 689.34 649.89 655.05 594.16 615.62 549.29 571.29 518.33 525.58 502.41 476.92 499.36 428.38 505.27 384.72 520.12 347.68 536.7 322.16 551.12 310.29 566.51 315.01 575.95 337.31 578.52 371.38 579.56 416.15 574.01 464.78 562.6 505.72 550.47 534.99 533.69 545.99 512.7 533.78 491.72 503.53 467.51 461.96 440.07 413.13 411.9 368.59 379.27 335.09 341.86 313.65 302.92 309.91 258.92 322.74 211.18 349.15 164.41 386.9 117.7 431.03 75.35 479.87 41.94 528.61 20.1 574.23 14.17 618.34 23.28 657.49 49.32 691.48 89.67 723.23 134.3 751.11 179.75 775.92 216.81 799.93 234.65 822.32 231.07 843.3 204.48 864.29 157.48 882.89 102.48 898.46 50.49 918.38 -4.86 928.24 16.25 914.19 81.75 900.9 136.81 882.3 192.69 860.97 244.39 844.33 291.25 831.47 329.82 826.91 360.29 835.92 384.04 858.48 402.16 895.3 417.07 944.18 428.51 1000.66 440.08 1057.59 453.69 1107.26 466.49 1141.77 483 1153.99 503.98Q1153.99 503.99 1153.99 503.99" opacity="0.59"></path><path d="M1115.99 538.69C1107.61 557.05 1081.38 574.52 1041.92 590.39 994.44 605.51 943.91 617.64 895.82 625.4 853.55 630.77 820.08 630.05 796.43 622.33 783.12 611.7 778.31 594.36 779.54 571.64 806.12 518.96 826.73 560.51 816.99 630.08 808.49 683.45 795.08 734.2 776.71 774.48 758.35 799.08 735.91 802.68 709.78 786.26 683.4 753.66 652.96 708.57 618.92 657.45 584.68 604.99 547.33 556.59 508.35 515.93 471.27 484.29 435.3 462.66 403.37 449.8 369.58 446.06 368.32 459.7 405.63 464.91 440.26 468.04 480.33 466.41 520.73 459.35 553.1 452.26 575.61 439.67 583.99 421.31 574.54 402.95 551.13 379.68 518.11 352.13 477.36 324.56 437.26 292.79 402.92 257.84 374.65 223.64 358.35 187.71 354.61 152.29 361.26 120.79 378.99 93.48 404.94 73.62 437.43 62.41 473.81 62.27 511.15 74.79 550.29 96.33 587.69 128.26 621.92 167.26 655.9 204.92 686.25 239.56 712.56 265.07 738.6 274.4 760.99 267.08 779.35 242.48 797.72 202.2 811.19 155.17 819.78 108.88 826.33 41.15 794.56 127.61 781.12 195.46 779.24 242.25 783.28 285.94 795.75 324.88 818.61 360.91 851.37 391.87 893.09 418.32 940.9 442.38 991.45 463.65 1039.28 483.16 1079.39 501.93 1106.53 520.32 1115.99 538.68Q1115.99 538.69 1115.99 538.69" opacity="0.29"></path><path d="M1077.99 490.91C1053.21 522.39 983.7 537.64 899.14 535.05 820.7 529.8 764.59 506.4 733.22 474 724.29 457.46 724.43 459.71 720.8 496.74 721.2 569.39 707.73 660.99 676.25 736.48 644.77 766.97 598.25 735.91 543.3 663.84 492.37 574.87 443.1 494.13 410.78 436.55 400.89 401.64 423.61 384.05 478.97 370.96 540.46 364.64 597.21 348.72 621.99 317.24 595.46 285.76 537.64 241.7 475.99 193.46 410.53 136.23 469.39 154.1 545.81 243.67 601.07 292.67 647.69 310.97 679.18 280.48 710.66 204.98 724.02 126.15 723.32 76.56 726.5 62.61 725.54 93.75 733.28 151.55 763.45 225.21 818.38 297.74 896.14 357.55 980.86 414.69 1051.45 459.42 1077.99 490.9Q1077.99 490.91 1077.99 490.91" opacity="0.25"></path><path d="M1039.99 389.06C1022.74 415.3 971.53 425.04 904.3 421.13 833.49 419.33 771.35 410.02 724.59 402.96 691.42 412.58 669.27 440.41 651.37 491.47 638.22 560.93 620.43 637.52 594.2 698.48 567.97 727.84 535.76 713.14 503.46 665.17 475.89 597.37 457.11 524.64 455.89 461.35 468.26 407.32 502.59 367.08 554.16 336.95 602.17 312.28 642.74 288.61 659.99 262.38 641.26 236.15 599.61 209.83 551.15 189.03 499.72 173.71 466 173 454.42 192.65 456.59 221.55 476.2 266.46 504.33 315.04 537.16 343.77 569.63 347.84 595.86 318.48 622.1 257.52 639.61 191.56 652.24 141.33 669.58 109.49 690.91 109.49 723.11 134.26 769.07 175.7 830.61 225.95 901.28 273.21 968.97 322.58 1021.25 362.82 1039.99 389.05Q1039.99 389.06 1039.99 389.06" opacity="0.26"></path><path d="M1001.99 293.72C990.99 314.7 956.32 327.18 907.93 334.09 852.39 344.2 797.02 354.96 748.71 372.04 705.45 400.17 670.36 441.13 642.47 494.08 617.48 553.54 595.03 613.49 574.05 660.48 553.06 687.07 535.52 684.53 524.14 658.02 515.66 614.77 518 561.43 533.75 508.44 554.55 455.36 587.66 409.31 627.82 372.66 660.82 338.22 686.99 310.35 697.99 289.36 685.78 268.37 658.64 256.26 625.05 254.33 584.64 254.61 551.63 267.91 531.15 293.48 515 334.51 543.68 386.06 573.56 356.48 594.55 309.49 616.75 258.05 641.3 213.96 668.78 176.4 703.35 157.69 746.1 157.08 794.09 167.51 849.35 189.49 905.14 215.75 954.13 245.22 989.77 272.72 1001.99 293.71Q1001.99 293.72 1001.99 293.72" opacity="0.07"></path><path d="M963.99 261.57C939.21 293.05 867.08 329.74 791.75 382.46 716.4 453.03 657.95 546.99 626.47 622.48 594.99 652.97 596.44 617.93 630.53 555.22 664.59 478.95 711.21 413.61 735.99 382.13 709.46 350.65 661.8 358.98 627.5 394 593.67 415.45 592.61 424.97 624.1 394.48 655.58 318.99 713.64 250.55 788.73 221.24 864.28 209.78 937.46 230.09 963.99 261.57Q963.99 261.57 963.99 261.57" opacity="0.33"></path><path d="M925.99 311.74C914.99 332.73 877.97 372.05 834.76 422.84 786.48 476.16 744.67 537.49 723.69 584.48 702.7 611.08 706.51 604.76 727.27 579.24 742.98 543.48 762.99 506.51 773.99 485.52 751.31 464.02 701.63 464.42 720.68 432.48 741.67 385.49 783.55 341.17 832.13 315.36 875.83 292.07 913.78 290.75 925.99 311.74Q925.99 311.74 925.99 311.74" opacity="0.18"></path></g></svg>