<svg xmlns="http://www.w3.org/2000/svg" version="1.1" xmlns:xlink="http://www.w3.org/1999/xlink" xmlns:svgjs="http://svgjs.dev/svgjs" viewBox="0 0 1422 800" opacity="0.54"><defs><linearGradient x1="50%" y1="0%" x2="50%" y2="100%" id="ssscribble-grad"><stop stop-color="hsl(206, 75%, 49%)" stop-opacity="1" offset="0%"></stop><stop stop-color="hsl(331, 90%, 56%)" stop-opacity="1" offset="100%"></stop></linearGradient></defs><g fill="none" stroke-width="1" stroke="url(#ssscribble-grad)" stroke-linecap="round"><path d="M2201.53 547.82C2079.36 570.26 1941.47 596.63 1819.61 626.71 1740.91 656.62 1722.38 689.86 1766.57 725.89 1863.4 761.09 1989.4 798.17 2116.05 836.09 2216.92 871.79 2268.87 906.63 2261.4 939.04 2196.41 966.97 2087.04 990.06 1955.63 1006.46 1827.1 1015.91 1726.39 1016.49 1671.13 1006.9 1670.07 989.69 1720.86 962.35 1811.1 925.54 1923.67 885.14 2034.69 839.74 2123.04 792.98 2173.7 752.79 2176.02 719.99 2129.92 700.04 2042.49 698.97 1927.94 718.5 1804.21 761.58 1688.37 826.85 1597.67 913.16 1543.19 1016 1530.37 1124.72 1558.15 1233.03 1619.06 1330 1703.69 1403.22 1796.36 1446.17 1882.72 1452.25 1952.18 1421.79 1992.95 1357.93 2000 1269.79 1972.59 1175.23 1913.29 1087.94 1829.23 1025.82 1727.86 1005.15 1620.62 1032.52 1517.61 1109.29 1426 1224.71 1354.35 1362.84 1306.63 1500.29 1284.47 1609.94 1287.32 1672.6 1311.62 1674.61 1354.56 1617.23 1408.74 1512.94 1467.71 1386.66 1528.21 1273.38 1582.13 1201.39 1625.15 1194.1 1656.14 1258.65 1670.86 1383.53 1668.98 1541.07 1651.35 1690.7 1618.57 1795.51 1573.14 1826.57 1516.28 1776.43 1451.77 1659.78 1382.76 1511.97 1309.5 1382.26 1236.64 1311.68 1166.34 1327.61 1097.66 1429.5 1034.38 1589.13 977.22 1758.02 924.6 1881.29 878.7 1919.6 839.1 1859.38 804.4 1723.4 775.16 1558.96 750.43 1426.67 729.54 1378.43 711.8 1434.08 696.17 1577.35 676.83 1831.83 641.33 1854.04 621.94 1605.59 609.04 1462.15 594.13 1411.32 576.88 1476.39 559.75 1632.41 540.04 1816.48 517.6 1952.15 495.17 1981.95 470.27 1893.6 443.09 1725.33 416.02 1545.97 386.91 1428.48 356.11 1418.13 325.82 1517.57 294.38 1684.35 262.38 1850.97 231.67 1953.31 201.32 1950.38 172.18 1844.3 145.49 1674.23 121.3 1503.08 100.65 1391.46 83.84 1376.63 71.95 1460.24 65.94 1608.16 64.83 1767.7 70.45 1879.82 83.26 1905.99 100.59 1837.22 124.5 1695.35 154.3 1525.89 185.72 1379.32 220.18 1299.55 255.55 1305.9 286.68 1392.69 313.81 1528.31 333.83 1668.77 342.42 1773.24 338.9 1808.42 320.79 1764.76 286.93 1652.83 237.04 1501.85 171.46 1349.5 93.87 1229.67 5.96 1169.54 -87.9 1177.66 -180.23 1248.1 -267.16 1358.35 -342.2 1478.8 -398.61 1582.7 -432.91 1643.08 -441.53 1647.26 -424.6 1594.04 -383.06 1493.31 -320.86 1364.41 -247.25 1227.19 -168.71 1106.12 -95.33 1018.25 -39.24 973.08 -7.19 974.18 -6.27 1015.39 -39.81 1088.31 -106.33 1176.1 -200.73 1263.04 -312.05 1338.64 -428.9 1388.59 -536.89 1407.01 -621.16 1392.69 -671.49 1346.55 -680.38 1274.91 -647.61 1182.96 -577.8 1081.4 -481.97 979.11 -378.25 880.31 -282.85 794.36 -213.68 725.03 -185.84 672.79 -205.52 639.98 -272.63 624.71 -377.43 625.82 -503.97 639.51 -631.12 661.71 -735.94 692.41 -800.36 725.22 -811.97 757.02 -769.37 789.84 -680.34 817.67 -562.51 839.34 -441.78 858.18 -342.1 869.86 -285.76 874.71 -286.95 876.1 -346.53 871.49 -453.97 861.85 -587.21 849.75 -718.73 834 -820 815.59 -868.63 795.97 -853.45 774.84 -777 752.89 -657.38 730.62 -520.63 708.15 -398.46 685.71 -320.72 663.27 -304.88 641.14 -353.32 619.09 -455 596.73 -585.08 573.84 -713.6 549.75 -813.04 524.46 -860.21 496.84 -845.44 465.91 -772.36 432.51 -656.46 394.44 -522.25 350.73 -396.43 303.58 -304.3 249.96 -262.62 189.58 -278.14 126.38 -345.26 57.42 -448.29 -16.1 -567.16 -88.6 -676.17 -161.69 -754.02 -232.21 -786.88 -294.25 -767.31 -347.3 -699.2 -387.31 -593.73 -410.94 -469.03 -416.53 -345.5 -402.19 -241.24 -370.75 -172.25 -322.19 -146.65 -260.23 -166.22 -194.78 -224.56 -129.52 -309.57 -73.3 -408.18 -37.38 -502.06 -26.4 -576.48 -46.65 -621.64 -99.64 -629.21 -183.57 -598.48 -292.53 -532.91 -412.84 -440.72 -533.38 -333.18 -638.4 -220.69 -711.73 -116.55 -744.31 -30.59 -729.94 30.89 -672.87 62.94 -581.9 65.64 -474.09 40.59 -374.59 -6.07 -302.56 -66.92 -277.29 -136.59 -309.43 -204.76 -397.04 -264.26 -527.43 -311.55 -674.37 -340.05 -810.37 -347.85 -905.78 -335.1 -938.87 -302.04 -902.94 -251.66 -806.48 -186.16 -677.5 -110.58 -549.07 -29.5 -458.83 55.25 -436.87 137.73 -492.9 214.74 -617.36 285.94 -777.84 347.38 -932.61 398.3 -1037.68 439.38 -1062.31 469.7 -999.92 490.36 -869.81 503.99 -653.63 491.88 -639.82 475.14 -874.88 460.72 -1035.47 447.23 -1130.79 435.69 -1126.68 423.48 -1025.78 414.35 -864.32 408.72 -702.9 403.44 -605.46 401.98 -610.12 404.32 -719 407.23 -892.18 413.79 -1064.49 423.85 -1168.4 434.26 -1162.54 447.88 -1048.44 464.55 -871.35 481.32 -705.3 500.95 -618.05 523.38 -647.79 545.82 -783.43 570.81 -966.35 598.34 -1120.16 625.99 -1183.03 656.39 -1128.89 689.68 -981.03 723.33 -798.16 760.15 -652.57 800.28 -599.14 840.96 -656.44 885.12 -799.06 932.71 -969.75 980.65 -1104.39 1031.72 -1150.38 1085.47 -1091.49 1138.55 -948.53 1193.17 -772.41 1248.3 -623.74 1300.57 -550.83 1351.2 -575.49 1398.54 -684.15 1439.85 -838.45 1475.08 -982.57 1502.4 -1068.04 1520.61 -1067.54 1528.7 -979.63 1525.51 -831.67 1512.47 -665.6 1488.41 -529.78 1454.06 -459.61 1413.89 -470.63 1367.7 -554.55 1318.68 -682.46 1273.34 -818.29 1232.93 -920.63 1202.01 -961.84 1186.21 -931.21 1187.14 -835.06 1207.76 -696.83 1248.93 -545.6 1310.18 -415.56 1389.57 -331.68 1481.17 -307.18 1580.79 -342.56 1681.25 -424.22 1772.88 -533.69 1849.66 -643.12 1904.11 -729.15 1930.82 -776.53 1927.47 -773.81 1893.97 -722.36 1835.98 -629.48 1759.09 -510.74 1673.1 -384.07 1592.04 -263.83 1525.59 -167.21 1484.98 -103.37 1479.21 -76.07 1510.95 -85.01 1579.47 -123.64 1677.25 -186.02 1793.68 -259.16 1914 -332.14 2020.73 -399.25 2099.95 -449.26 2139.52 -477.7 2133.94 -483.96 2084.1 -466.12 1998.1 -427.17 1892.82 -369.34 1785.49 -298.15 1696.46 -219.08 1644.8 -133.44 1640.76 -48.67 1688.2 31.55 1780.63 108.18 1903.28 175.79 2034.81 233.72 2150.5 284.03 2229.3 324.59 2255.51 356.67 2224.52 381.82 2142.07 400.67 2024.91 415.06 1899.37 424.96 1791.09 432.81 1724.58 440.15 1716.39 445.26 1769.08 451.57 1872.96 460.06 2005.92 467.73 2139.36 478.51 2243.29 492.92 2293.98 507.16 2279.27 525.39 2201.53 547.82Q2201.53 547.82 2201.53 547.82" opacity="0.78"></path><path d="M2149.58 650.72C2032.82 672.26 1900.4 691.44 1780.49 708.09 1697.73 724.5 1668.73 737.93 1698.06 747.92 1779.41 757.05 1894.25 762 2018.36 762.23 2163.66 757.7 2143.11 719.61 1985.5 687.14 1857.39 664.53 1740.35 639.53 1654.05 614.07 1611.99 593.61 1619.66 576.93 1673.05 567.08 1762.22 568.29 1868.99 581.13 1973.96 608.29 2060.58 650.35 2112.56 708.24 2121.73 781.7 2086.81 865.69 2012.52 959.2 1910.1 1057.17 1792.82 1150.2 1677.48 1234.52 1578.71 1302.46 1507.38 1346.59 1471.56 1363.61 1472.84 1350.45 1509.28 1310.05 1572.86 1245.27 1652.94 1163.84 1739.99 1080.29 1820.13 1004.05 1883.17 948.69 1922.95 927.22 1933.13 945.08 1913 1005.12 1864.42 1101.19 1792.17 1223.34 1703.44 1355.2 1604.45 1474.69 1504.81 1564.89 1412.1 1609.56 1331.07 1601.11 1268.02 1541.23 1225.39 1441.44 1203.98 1325.81 1203.19 1217.79 1220.19 1144.03 1253.21 1126.04 1296.54 1171.15 1345.38 1274.86 1397.97 1415.96 1447.6 1565.91 1490.76 1690.56 1527.14 1759.58 1552.24 1757.2 1565.19 1683.53 1566.88 1560.63 1556.14 1421.06 1534.22 1305.61 1502.1 1251.43 1461.4 1276.43 1414.2 1378.7 1360.61 1531.28 1303.81 1692.96 1245.62 1816.71 1185 1865.22 1125.5 1824.23 1068.21 1706.15 1011.16 1551.36 957.57 1409.79 907.78 1330.89 859.42 1344.81 815.06 1449.45 774.54 1612.64 735.54 1779.29 699.98 1893.23 667.46 1913.8 636.04 1834.08 607.07 1681.85 580.14 1512.52 553.77 1390.76 528.94 1361.91 505.37 1439.32 481.96 1595.15 459.52 1771.32 437.98 1900.14 416.44 1931.1 396.05 1852.39 376.93 1695.68 357.95 1520.29 340.53 1392.27 324.94 1357.6 309.91 1427.63 297.24 1573.97 287.35 1741.33 278.55 1870.14 273.13 1912.69 271.5 1854.9 271.41 1716.66 275.51 1545.39 283.99 1398.02 293.9 1321.05 308 1337.33 325.97 1437.13 344.18 1586.65 365.02 1733.98 387.41 1831.38 407.37 1849.02 426.38 1780.02 442.64 1645.54 452.51 1482.96 456.35 1338.71 452.1 1250.52 437.65 1238.98 412.5 1303 375.45 1420 327.13 1557.45 267.18 1674.49 196.49 1739.89 119.02 1737.36 35.63 1666 -50.14 1543.35 -132.18 1395.35 -208.15 1255.56 -273.19 1151.97 -322.23 1102.43 -352.88 1113.72 -362.29 1177.67 -350.47 1279.03 -317.62 1391.86 -266.14 1491.55 -202.98 1560.04 -132.25 1581.56 -61.48 1552.95 -0.99 1478.39 43.69 1370.4 65.42 1246.16 58.68 1120.83 22.35 1013.24 -42.86 935.29 -131.32 893.08 -236.17 889.11 -347.18 918.65 -451.22 976.2 -538 1049.34 -596.87 1126.45 -620.58 1200.46 -606.4 1258.95 -555.92 1295.95 -478 1309.74 -382.7 1297.49 -284.64 1261.68 -201.43 1204.72 -145.52 1132.24 -128.13 1050.29 -154.82 961.13 -223.47 872.76 -325.87 789.55 -446.64 711.49 -568.31 644.14 -671.48 588.38 -738.87 542.78 -759.63 508.87 -729.72 485.11 -655.58 470.47 -549.75 463.2 -431.9 461.07 -289.2 467.46 -293.59 488.17 -448.87 495.52 -579.29 500.29 -699.43 501.29 -785.04 498.07 -818.64 494.96 -792.86 487.38 -712.25 475.18 -594.5 462.97 -463.17 446.13 -346.41 424.59 -270.68 403.06 -251.67 377.07 -292.25 346.74 -383.89 316.4 -505.73 281.73 -631.74 242.88 -737.07 204.15 -798.96 161.51 -805.46 115.42 -755.88 70.15 -659.82 22.4 -536.26 -26.77 -407.98 -73.33 -299.08 -119.25 -228.5 -162.7 -207.71 -200.44 -238.52 -232.67 -312.91 -257.11 -417.14 -272.44 -529.92 -277.2 -630.41 -269.84 -702.11 -252.31 -731.03 -222.75 -712.65 -182.03 -649.82 -136.14 -552.31 -84.64 -435.36 -31.85 -315.11 13.72 -209.47 50.32 -132.16 71.93 -91.96 72.38 -92.46 49.8 -130.4 1.7 -199.4 -69.58 -286.48 -161.83 -377.9 -269.03 -462.36 -379.34 -526.06 -485.12 -560.81 -574.71 -562.95 -636.29 -531.08 -663.78 -469.3 -652.4 -383.38 -605.28 -282.96 -527.9 -178.13 -432.12 -76.85 -337.43 10.78 -258.33 78.53 -211.99 122.92 -211.59 141.68 -260.65 136.25 -355.99 108.45 -482.52 64 -621.51 8.97 -748.32 -53.03 -837.71 -113.62 -873.73 -167.4 -848.16 -212.31 -768.55 -242.66 -651.97 -256.79 -526.39 -254.96 -426.16 -236.36 -376.43 -202.8 -394.73 -155.6 -480.95 -97.86 -618.02 -32.79 -774.69 38.73 -910.91 112.1 -993.33 184.64 -999.34 256.64 -928.7 323.99 -801.13 385.46 -654.34 442.22 -535.63 491.76 -481.51 534.2 -513.12 570.81 -624.5 600.86 -784.91 625.29 -946.59 644.74 -1058.57 659.99 -1086.1 672.16 -1019.41 680.94 -882.33 688.14 -720.35 694.73 -590.4 699.41 -540.89 704.63 -590.73 711.09 -725.83 720.41 -975.33 749.76 -1032.74 771.18 -797.13 786.38 -642.55 804.7 -564.89 826.24 -595.8 847.78 -724.58 872.29 -899.66 899.63 -1053.36 926.9 -1128.65 956.86 -1096.63 989.26 -970.63 1021.33 -797.05 1055.46 -639.5 1091.21 -553.43 1126.07 -567.65 1161.82 -674.24 1197.77 -832.57 1231.79 -987.46 1264.85 -1082.83 1295.95 -1086.52 1323.65 -997.39 1347.9 -844.61 1367.53 -677.66 1382.18 -547.41 1390.79 -493.3 1392.41 -527.78 1388.2 -637.52 1376.45 -784.29 1357.02 -921.1 1332.88 -1007.6 1302.39 -1015.95 1266.76 -944.26 1230.6 -811.3 1193.11 -653.36 1156.94 -511.23 1127.24 -418.33 1104.35 -395.89 1091.46 -444.04 1092.21 -547.83 1107.37 -676.13 1138.74 -794.81 1186.07 -876.11 1249.04 -898.03 1325.98 -856.1 1411.8 -758.4 1503.83 -625.68 1596.66 -484.62 1682.51 -359.39 1757.16 -273.33 1814.51 -238 1849.48 -255.8 1859.63 -318.43 1843.47 -409.68 1803.95 -513.31 1743.86 -606.57 1669.44 -673.1 1591.47 -703.59 1517.21 -691.27 1456.72 -639 1420.38 -552.83 1413.22 -445.17 1439.31 -329.59 1498.02 -216.11 1584.92 -118.7 1691.81 -45.09 1805.66 1.27 1914.38 18.02 2004.23 8.21 2063.02 -25.4 2083.56 -74.86 2062.57 -132.52 2004.47 -195.12 1917.22 -252.76 1814.49 -300.37 1715.07 -337.47 1634.23 -358.51 1587.19 -363.24 1584.59 -353.09 1628.42 -328.14 1714.12 -291.13 1828.61 -243.06 1954.47 -187.71 2070.87 -128.18 2157.41 -63.64 2199.44 0.84 2188.91 63.32 2128.59 126.37 2028.98 185.24 1909.02 239.3 1793.77 292 1705.03 339.53 1661.76 382.1 1674.58 423.18 1741.77 459.88 1851.36 492.71 1981.63 524.68 2106.69 553.51 2200.49 579.65 2243.23 605.53 2225.31 629.18 2149.58 650.72Q2149.58 650.72 2149.58 650.72" opacity="0.86"></path><path d="M2097.53 272.92C1986.14 293.56 1859.3 310.15 1741.87 322.87 1656.04 335.72 1617.74 344.96 1632.99 351.01 1698.59 357.68 1800.45 361.85 1918.58 364.32 2032.09 368.51 2118.66 372.36 2162.9 377.13 2157.73 385.52 2103.5 396.89 2010.09 412.89 1892.74 434.87 1771.2 463.68 1664.8 500.8 1589.19 545.39 1555.38 599.23 1566.41 662.55 1619.38 731.63 1703.33 807.93 1803.41 889.3 1904.93 969.49 1990.14 1048.28 2046.25 1121.19 2065.88 1181.81 2045.07 1228.22 1987.1 1256.07 1899 1263.08 1792.49 1248.01 1680.84 1210.91 1575.88 1157.47 1490.25 1090.2 1432.12 1016.12 1406.03 947.25 1412.82 889.58 1448.8 852.74 1509.1 845.58 1583.74 871.18 1662.81 931.2 1738.93 1020.4 1801.35 1131.88 1843.62 1253.64 1862.64 1368.39 1855.24 1463.26 1822.62 1524.02 1767.17 1541.3 1693.81 1512.74 1608.65 1442.34 1516.22 1345.1 1424.33 1236.97 1338.64 1139.72 1262.23 1076.49 1200.27 1060.91 1154.63 1101.25 1125.84 1193.12 1114.04 1322.38 1117.41 1465.67 1135.02 1593.06 1163.02 1679.95 1197.98 1706.86 1239.2 1668.65 1281.31 1574.06 1321.46 1445.87 1359.99 1319.09 1392.33 1225.31 1417.2 1192.22 1435.83 1232.61 1445.58 1339.5 1446.7 1488.72 1440.53 1641.53 1426.51 1759.24 1405.76 1809.37 1378.99 1778.48 1347.28 1675.26 1311.95 1529.71 1272.69 1387.86 1231.62 1292.25 1189.82 1275.23 1145.97 1345.29 1102.72 1483.42 1060.79 1648.89 1018.04 1789.75 977.35 1862.09 939.11 1841.61 900.66 1735.65 864.96 1578.3 832.16 1422.62 799.37 1323.71 769.55 1315.63 742.76 1403.55 716 1558.05 692.26 1726.1 671.61 1848.15 650.97 1880.08 633.68 1810.64 619.67 1665.75 600.35 1428.18 578.08 1405.49 574.83 1625.88 573.48 1771.09 574.9 1852.23 578.72 1843.65 581.72 1748.34 586.39 1596.41 592.02 1435.02 595.6 1311.57 598.84 1262.06 600.64 1297.55 598.52 1405.4 593.18 1549.89 583.31 1686.77 567.42 1777.38 545.23 1793.89 515.62 1732.34 478.73 1608.5 433.65 1455.25 380.16 1311.43 320.44 1210.45 253.71 1175.54 181.29 1210.53 107.25 1304.19 31.74 1429.01 -42.35 1552.41 -110.19 1646.1 -170.54 1685.63 -219.97 1662.62 -255.15 1581.39 -274.62 1458.9 -276.53 1319.93 -261.59 1188.66 -229.75 1089.97 -182.89 1038.52 -126.73 1039.88 -63.77 1089.45 0.33 1173.52 57.17 1276.7 102.83 1376.44 131.23 1454.83 136.79 1500.55 117.78 1504.14 73.02 1465.99 5.01 1390.77 -82.47 1289.42 -182.96 1175.38 -286.41 1059.48 -384.72 956.59 -467.98 875.98 -526.92 822.43 -555.95 799.68 -551.35 805.61 -514.71 837.6 -449.83 887.96 -364.85 948.64 -273.18 1015.45 -185.87 1077.93 -116.19 1130.2 -76.62 1170.8 -73.43 1193.87 -109.86 1198.82 -182.76 1186.76 -283.96 1158.1 -400.6 1115.87 -515.81 1061.3 -614.04 998.85 -680.43 932.07 -704.88 860.6 -683.61 789.96 -619.65 722.32 -524.89 655.67 -414.11 594.58 -306.59 539.58 -223.01 487.91 -177.7 442.55 -180.49 402.94 -232.7 366.58 -326.29 334.95 -445.85 307.1 -570.03 281.42 -676.97 258.24 -746.64 236.7 -765.98 216.18 -730.77 196.3 -647 176.5 -531.64 156.95 -405.85 136.96 -294.46 116.32 -220.79 95.68 -198.88 74.63 -231.94 53.4 -313.59 32.44 -426.53 11.82 -548.43 -7.86 -694.26 -34.89 -693.91 -72.73 -549.08 -79.14 -425.61 -78.45 -308.09 -71.68 -215.76 -58.23 -162.81 -41.45 -156.73 -18.21 -196.27 10.99 -274.2 41.17 -375.19 74.76 -481.51 109.59 -610.82 152.86 -634.09 187.92 -520.24 161.8 -411.65 122 -296.56 64.56 -189.74 -9.92 -103.17 -96.08 -47.26 -191.95 -26.63 -291.65 -42.04 -385.21 -88.75 -467.93 -158.38 -531.75 -242.5 -569.51 -327.85 -578.04 -403.48 -555.19 -461.88 -505.3 -494.43 -432.54 -497.87 -346.18 -472.1 -261.68 -419.23 -189.25 -344.81 -142.34 -254.36 -132.49 -156.76 -163.76 -60.01 -236.53 30.32 -341.96 106.65 -468.1 164.89 -597.02 211.45 -744.17 177.11 -742.69 113.97 -596.89 61.37 -480.87 8.15 -380.61 -41.51 -320.86 -86.63 -319.32 -121.93 -379.58 -145.68 -493.24 -158.33 -636.61 -157.85 -780.64 -144.97 -892.73 -120.67 -946.15 -86.03 -928.88 -43.06 -844.71 7.73 -717.69 63.38 -580.42 121.82 -471.7 183.6 -425.25 245.14 -456.02 305.06 -560.02 364.86 -710.31 421.31 -867.34 473.85 -986.86 524.49 -1034.03 570.75 -995.3 612.74 -881.7 652.44 -730.16 688.23 -587.12 720.55 -499.75 750.99 -499.1 778.68 -587.24 804.16 -738.48 828.45 -904.13 851.25 -1030.82 873.01 -1075.62 894.21 -1023.39 914.92 -890.87 935.43 -723.19 955.8 -580.35 976.25 -511.91 996.89 -543.79 1017.53 -665.81 1038.12 -832.81 1058.52 -985.26 1078.78 -1071.15 1098.57 -1060.03 1117.58 -957.07 1136.02 -797.31 1153.14 -634.87 1168.44 -522.84 1182.55 -496.28 1194.14 -561.56 1202.62 -694.43 1210.63 -916.56 1202.56 -961.44 1185.16 -754.79 1170.07 -597.58 1150.68 -481.79 1127.51 -437.47 1104.22 -474.16 1078.9 -577.56 1052.89 -715.24 1020.06 -894.81 985.73 -858.33 995.19 -657.45 1016.2 -510.85 1049.12 -397.03 1094.64 -338.83 1151.28 -345.74 1218.94 -411.86 1295.87 -517.76 1377.35 -639.55 1461.84 -746.58 1545.14 -815.5 1621.09 -832.91 1687 -793.67 1738.25 -706.08 1770.9 -584.46 1783.06 -451.27 1773.21 -328.28 1743.3 -232.13 1694.66 -177.14 1631.38 -167.35 1561.68 -201.04 1490.49 -268.2 1425.78 -354.63 1377.1 -448.07 1349.3 -530.61 1347.9 -590.29 1375.72 -620.79 1431.94 -616.28 1513.3 -578.43 1611.89 -510.91 1719.48 -421.98 1825.09 -321.29 1916.21 -215.4 1983.67 -115.77 2019.06 -29.44 2018.41 40.53 1981.7 89.02 1913.55 115.91 1825.14 121.96 1727.66 109.94 1635.87 84.19 1565.8 46.14 1527.82 2.68 1530.05 -41.73 1574.52 -87.32 1656.41 -127.41 1765.33 -159.86 1885.06 -186.55 1998.59 -203.34 2088.18 -210.48 2139.36 -210.16 2144.04 -201.13 2100.92 -184.89 2018.43 -162.68 1909.81 -135.48 1794.31 -104.94 1694.4 -70.78 1627.51 -35.36 1607.29 0.03 1639.22 37.16 1718.3 72.89 1831.21 106.43 1957.2 140.59 2073.22 171.85 2156.93 199.77 2192.07 227.82 2171.2 252.27 2097.53 272.92Q2097.53 272.92 2097.53 272.92" opacity="0.39"></path><path d="M2045.53 138.74C1939.49 158.48 1818.33 179.85 1703.86 202.95 1615.87 226.27 1569.42 251.74 1571.48 279.75 1621.35 308.55 1708.85 340.57 1818 376.34 1931.13 413.55 2027.69 455.15 2091.78 501.49 2113.86 549.46 2089.66 602.21 2023.55 659.5 1925.58 717.29 1810.92 778.28 1696.65 841.19 1598.39 901.4 1530.05 960.34 1499.72 1015.57 1510.38 1062.92 1558.31 1102.14 1634.66 1130.41 1728.83 1145.82 1825.3 1147.04 1910.23 1132.74 1973.33 1105.29 2004.66 1064.01 2000.52 1011.13 1961.54 953.87 1892.11 893.81 1800.68 836.97 1696.38 792.39 1591.27 763.26 1495.95 755.59 1418.37 773.69 1365.96 818.44 1341.75 889.43 1346.43 980.58 1377.04 1086.6 1428.1 1198.01 1494.66 1301.24 1567.3 1387.27 1638.11 1445.23 1702 1467.39 1750.91 1451.14 1780.78 1397.83 1790.14 1317.49 1777.2 1220.57 1743.51 1123.16 1691.07 1045.12 1623.96 999.47 1546.93 998.11 1462.97 1045.17 1378.34 1136.23 1297.36 1259.18 1221.94 1392.69 1156.71 1515.74 1103.46 1605.62 1062.5 1644.89 1035.03 1626.54 1020.24 1553.69 1017.66 1444 1025.31 1320.15 1040.98 1211.14 1064.52 1145.56 1092.14 1139.9 1121.59 1199.95 1153.64 1314.49 1184.15 1459.91 1211.68 1603.3 1237.85 1709.7 1259.16 1754.15 1275.18 1724.74 1287.89 1630.34 1294.91 1495.05 1296.55 1355.8 1294.59 1253.63 1287.83 1217.3 1276.94 1260.42 1263.13 1373.37 1246.15 1526.65 1226.78 1677.86 1205.46 1783.12 1182.68 1812.17 1159.11 1755.4 1134.46 1630.75 1109.76 1475.06 1085.48 1336.79 1060.74 1261.22 1036.9 1272.39 1014.26 1368.95 991.52 1521.04 970.2 1680.78 950.46 1796.15 930.71 1828.86 912.77 1768.27 896.52 1635.38 880.16 1472.77 865.26 1332.41 851.54 1257.39 837.36 1269.78 823.89 1363.7 810.67 1508.06 796.37 1659.3 781.58 1769.71 765.67 1806.75 747.81 1760.15 727.87 1643.22 705.13 1489.81 679.47 1341.53 650.03 1239.05 616.17 1207.71 578.71 1253.6 536.24 1360.91 488.49 1498.01 437.43 1629.03 381.47 1717.09 321.09 1739.87 259.34 1691.81 195.04 1584.16 129.65 1442.95 66.85 1298.97 6.35 1184.97 -49.6 1123.63 -97.7 1125.24 -137.29 1185.69 -166.16 1287.61 -182.82 1408.6 -186.3 1519.13 -175.77 1595.59 -152.95 1623.4 -117.63 1595.49 -71.58 1517.9 -19.96 1403.37 35.85 1272.86 91.55 1147.94 160.05 1014.25 204.94 1019.86 162.92 1135.03 107.18 1230 33 1317.51 -55.5 1384.58 -150.92 1423.72 -247.54 1427.81 -337.42 1397.36 -411.79 1335.52 -465.06 1249.95 -491.69 1150.35 -489.44 1043.94 -458.31 942.58 -401.29 854.14 -326.52 782.52 -241.26 733.36 -156.06 707.21 -83.74 703.5 -32.69 719.37 -11.31 750.22 -24.79 794.08 -72.97 843.6 -152.14 893.81 -253.13 944.14 -364.88 987.68 -473.53 1022.05 -595.14 1055.78 -603.76 1051.75 -488.47 1018.85 -385.34 986.71 -280.97 949.18 -192.4 908.22 -135.7 863.02 -120.03 816.92 -149.72 771.35 -221.43 724.01 -324.7 678.74 -443.62 636.3 -558.56 593.41 -650.92 553.99 -704.7 518.35 -710.66 482.7 -667.16 450.94 -581.15 423.17 -468.65 395.44 -348.5 371.66 -242.46 351.91 -170.98 332.17 -146.52 316.69 -172.52 305.43 -244.35 294.19 -347.88 287.21 -464.25 284.4 -615.87 282.21 -670.97 296.27 -557.29 310.22 -445.08 318.56 -327.08 327.75 -221.36 336.4 -142.99 340.81 -103.15 342.15 -105.97 338.47 -150.04 327.33 -226.49 308.34 -322.33 279.71 -424.08 241.39 -514.81 192.1 -581.35 131.49 -615.32 62.91 -610.88 -14.41 -569.02 -98.08 -494.85 -181.64 -397.86 -264.05 -290.07 -340.33 -182.86 -403.61 -89.08 -451.43 -18.1 -479.18 24.02 -484.49 34.16 -466.3 13.81 -425.12 -33.78 -367.11 -100.54 -295.67 -177.43 -218.62 -257.18 -148.38 -328.82 -91.62 -384.81 -58.02 -420.86 -55.81 -431.98 -87.56 -417.59 -153.78 -378.95 -247.92 -319.27 -361.92 -243.78 -482.77 -156.81 -593.05 -65.82 -679.88 23.11 -729.96 106.27 -735.69 177.61 -696.27 234.18 -617.61 274.72 -516.01 297.83 -408.14 304.49 -315.57 295.38 -259.92 273.53 -253.27 242.16 -301.62 202.29 -398.62 159.1 -528.99 115.81 -669.09 72.6 -790.13 34.35 -868.97 2.85 -888.21 -22.69 -844.5 -39.22 -747.37 -46.6 -619.45 -46.02 -494.3 -36.6 -401.92 -19.33 -368.31 4.96 -405.54 35.38 -507.24 70.51 -651.08 110.45 -801.02 153.08 -920.34 197.18 -977.41 243.82 -957.23 290.33 -865.06 335.87 -726.19 382.34 -582.19 426.91 -473.76 469.13 -434.75 511.43 -479.38 551.01 -596.48 587.74 -753.5 624.26 -903.66 657.91 -1002.46 688.68 -1018.8 719.27 -947.71 747.11 -810.33 772.22 -649.7 797.26 -518.76 819.68 -459.13 839.42 -491.79 859.17 -607.13 876.01 -765.86 889.96 -915.99 903.85 -1010.61 914.75 -1018.87 922.61 -939.42 930.3 -797.27 934.83 -636.71 936.18 -506.26 937.32 -443.67 935.3 -465.97 930.24 -563.59 925.26 -707.16 917.6 -851.94 907.68 -955.5 898.69 -989.24 888.38 -942.66 877.56 -829.36 869.29 -678.97 862.1 -531.67 857.21 -424.43 857.11 -382.16 861.34 -412.93 871.25 -504.84 888.2 -633.75 912.57 -763.89 945.33 -862.38 986.06 -906.38 1035.48 -883.9 1093.45 -800.73 1157.36 -674.11 1227.56 -531.89 1302.22 -403.09 1376.96 -311.11 1451.1 -272.9 1521.4 -291.59 1583.2 -360.9 1634.96 -462.66 1673.44 -574.22 1696.14 -675.21 1701.85 -743.64 1689.56 -767.4 1661.24 -742.74 1617.58 -673.13 1561.51 -570.48 1499.66 -448.45 1435.16 -326.27 1374.07 -220.05 1307.24 -119.47 1303.8 -153.17 1380.71 -257.31 1460.01 -340.47 1554.3 -417.68 1656.01 -479.47 1754.86 -521.1 1842.89 -535.96 1911.06 -523.64 1951.96 -485.55 1961.67 -425.48 1938.64 -349.46 1886.77 -261.17 1811.36 -169.17 1721.77 -79.49 1631.58 5.8 1551.45 79.98 1493.34 140.79 1467.56 188.43 1478.39 221.01 1526.83 239.83 1607.85 245.78 1712.24 241.21 1826.82 228.91 1935.49 208.72 2023.94 185.23 2079.16 160.85 2093.11 133.76 2063.56 108.96 1994.6 87.72 1898.27 66.99 1788.8 51.14 1684.21 40.41 1603.47 31.29 1559.55 27.25 1561.28 27.92 1609.88 30.02 1698.06 36.16 1811.93 45.83 1932.2 56.27 2038.68 69.54 2112.49 85.22 2140.47 101.11 2117.01 119 2045.53 138.74Q2045.53 138.74 2045.53 138.74" opacity="0.67"></path><path d="M1993.53 505.46C1892.8 524.3 1777.42 546.76 1666.35 572.67 1577.12 598.48 1523.72 627.55 1513.67 659.54 1548.19 691.09 1620.45 725.04 1718.13 760.77 1826.83 795.22 1928.33 830.4 2007.22 865.28 2052.74 897.37 2057.31 927.47 2020.8 954.18 1948.44 975.99 1850.47 992.35 1740.48 1001.77 1632.33 1004.43 1540.43 998.64 1475.69 983.59 1445.08 961.81 1451.05 931.34 1490.75 893.02 1558.69 851.9 1643.92 806.95 1734.64 761.19 1820.7 721.12 1889.71 687.3 1933.58 664.01 1948.03 656.32 1930.51 665.54 1883.37 694.31 1811.05 742.54 1721.28 809.83 1623.01 893.84 1524.09 987.51 1434.27 1086.85 1360.61 1184.19 1307.72 1269.2 1279.26 1336.19 1275.43 1377.72 1295.32 1389.2 1334.75 1369.25 1388.39 1319.24 1452.31 1247.34 1518.5 1160.74 1580.95 1071.41 1636.39 995.22 1678.51 942.31 1704.5 923.61 1713.66 945.59 1704.42 1007.94 1677.94 1105.32 1635.61 1224 1580.23 1349.17 1515.23 1462.02 1442.44 1543.54 1366.65 1581.59 1291.24 1568.82 1217.2 1508.73 1148.81 1411.54 1087.87 1295.91 1034.35 1187.56 990.49 1107.62 956.29 1075.42 931.26 1101.19 915.29 1182.42 907.22 1305.68 906.83 1445.86 912.21 1575.5 921.81 1666.55 936.23 1698.67 952.53 1664.92 969.41 1572.51 988.36 1445.29 1006.12 1313.04 1021.88 1209.7 1037.82 1164.09 1050.83 1189 1060.59 1281.34 1069.63 1419.09 1075.17 1568.82 1077.27 1692.01 1078.45 1755.87 1076.38 1743.4 1071.26 1657.06 1065.45 1521.68 1056.95 1373.83 1046.02 1255.88 1034.71 1203.48 1021.31 1232.1 1005.97 1335.43 990.54 1484.09 973.37 1635.36 954.53 1744.15 935.68 1777.43 915.37 1725.29 893.58 1604.43 871.69 1450.29 848.12 1307.99 822.71 1217.61 796.94 1203.68 769 1268.41 738.66 1391.47 707.63 1538.8 673.84 1667.63 637.12 1742.89 599.47 1745.22 558.7 1673.49 514.78 1547.22 470.13 1397.87 422.56 1263.41 372.42 1175.78 322.47 1154.28 270.88 1201.61 218.48 1302.92 168.15 1433.35 118.78 1558.74 71.7 1649.08 29.43 1684.45 -8.19 1655.57 -39.62 1569.48 -63.37 1443.57 -78.8 1304.65 -84.72 1180.23 -81.47 1092.44 -68.1 1057.05 -44.6 1076.97 -13.68 1146.16 25.15 1247.31 70.15 1358.7 116.51 1460.52 163.75 1531.32 208.51 1558.84 245.48 1538.82 273.35 1473.93 288.72 1375.21 288.23 1255.91 271.05 1134.69 236.03 1027.73 184.18 946.56 116.77 901.12 36.63 893.55 -50.51 922.35 -140.82 979.83 -228.23 1055.37 -305.37 1140.23 -367.69 1220.21 -409.84 1285.35 -428.26 1330.25 -421.42 1347.92 -389.49 1337.54 -336.79 1300.36 -267.28 1240.15 -187.98 1163.08 -109.33 1073.4 -38.51 979.93 15.56 889.17 44.46 803.92 44.44 731.02 13.18 672.97 -47.49 629.97 -132.59 603.57 -233.98 592.28 -340.03 595.23 -439.85 609.39 -521.61 631.58 -575.13 661.72 -594.14 694.65 -575.77 727.67 -523.28 762.23 -442.84 793.2 -345.32 819.31 -245.97 843.1 -157.81 860.65 -94.43 871.97 -66.89 879.82 -79.6 881.78 -132.39 878.55 -218.56 872.37 -326.47 862.1 -440.69 848.65 -543.9 833.34 -620.79 815.98 -659.04 797.36 -652.72 777.88 -602.14 757.97 -514.8 738.14 -405.61 718.09 -291.19 698.54 -190.46 679.69 -121.27 660.85 -94.6 642.92 -113.97 625.75 -176.23 608.36 -269.99 591.29 -379.56 574.06 -488.47 555.98 -578.28 536.89 -635.26 516.05 -651.56 493.36 -624.21 467.77 -557.87 438.41 -462.19 406.1 -351.27 368.92 -240.89 326.18 -145.53 279.97 -78.13 227.87 -46.52 169.89 -53.87 109.59 -97.36 44.79 -169.31 -23.21 -260.27 -89.68 -355.99 -155.68 -443.35 -218.49 -512.24 -273.34 -552.41 -319.77 -559.22 -354.55 -532.16 -375.09 -474.02 -380.11 -391.77 -368.06 -293.54 -340.96 -190.43 -298.56 -92.81 -243.33 -8.91 -182.59 53.07 -118.67 88.87 -58.03 96.66 -10 77.71 21.66 36.15 30.82 -23.85 13.19 -93.88 -31.97 -166.25 -103.82 -235.67 -195.93 -293.67 -302.32 -335.26 -413.05 -358.19 -514.45 -359.36 -597.23 -339.21 -650.74 -299.13 -667.89 -242.1 -646.57 -172.35 -588.92 -92.91 -505.47 -9.74 -407.14 72.54 -310.09 151.57 -233.62 222.24 -190.33 282.09 -191.25 330.34 -239.71 365.04 -330.81 386.44 -452.25 394.87 -583.26 391.73 -703.36 379.02 -790.8 357.12 -828.99 329.58 -811.15 298.75 -740.19 264.32 -632.59 230.43 -509.75 198.79 -399.17 168.23 -328.4 142.32 -314.08 121.77 -363.24 104.92 -467.38 94.18 -605.81 89.39 -748.49 88.96 -862.06 94.05 -920.87 103.97 -910.03 117.65 -833.06 135.17 -708.43 155.67 -568.06 178.87 -450.74 203.97 -387.13 230.21 -396.7 258.09 -479.21 286.22 -614.43 314.02 -767.29 342.66 -895.89 370.36 -965.28 396.73 -955.12 423.42 -868.5 448.43 -729.04 471.51 -576.78 494.66 -457.78 515.73 -406.56 534.57 -439.79 553.42 -548.55 569.83 -698.85 583.9 -845.65 598.05 -947.12 610.02 -972.96 620.03 -916.87 630.37 -795.21 639.11 -642.72 646.62 -501.81 654.97 -409.91 662.7 -391 670.36 -447.56 679.66 -563.46 689.79 -705.05 701.49 -833.83 715.87 -917.23 732.91 -932.34 753.42 -876.12 777.69 -762.16 806.44 -618.46 840.33 -478.99 878.56 -374.32 922.36 -327.49 971.88 -345.79 1025.09 -423 1083.25 -538.05 1145.64 -662.89 1209.11 -770.83 1274.4 -835.99 1339.77 -844.97 1401.55 -795.98 1459.58 -698.52 1511.5 -571.93 1554.23 -438.05 1586.92 -321.92 1607.53 -242.19 1615.18 -209.78 1609.03 -227.5 1588.81 -288.05 1556.99 -379.92 1513.82 -483.47 1461.77 -579.91 1406.44 -655.04 1349.69 -694.52 1296.11 -693.01 1252.21 -650.83 1220.47 -573.81 1205.1 -472.93 1209.65 -358.9 1234.93 -247.01 1281.36 -149.25 1346.45 -73.36 1427.34 -26.98 1519.02 -11.48 1613.65 -26.04 1705.29 -65.5 1786.26 -122.47 1848.79 -191.78 1888.04 -262.58 1899.88 -327.2 1883.69 -382.16 1840.65 -419.92 1775 -438.14 1695.61 -436.91 1610.04 -415.64 1528.62 -377.01 1463.18 -322.79 1421.13 -257.57 1409.4 -185.68 1431.55 -108.1 1486.3 -30.9 1569 42.87 1670.18 113.86 1778.94 177.41 1882.15 232.64 1966.35 281.15 2021.29 320.77 2039.28 352.31 2018.3 377.09 1960.72 395.29 1874.34 408.37 1772.93 416.56 1670.16 421.69 1581.75 425.15 1522.68 425.81 1501.74 426.48 1523.56 428.18 1586.06 428.6 1680.51 431.09 1793.15 436.25 1906.45 440.97 2003.03 448.88 2067.18 460.29 2088.43 471.6 2062.72 486.61 1993.53 505.46Q1993.53 505.46 1993.53 505.46" opacity="0.97"></path><path d="M1941.58 669.97C1846.14 687.92 1736.6 704.47 1629.35 719.52 1510.17 740.86 1507.78 771.75 1620.35 779.18 1721.05 781.68 1822.64 780.15 1910.93 774.14 1974.98 766.43 2005.2 753.93 1998.06 736.6 1954.8 718.06 1880.86 695.33 1785.85 669.15 1680.71 643.85 1578.45 617.23 1490.62 591.03 1409.08 561.05 1447.58 545.12 1549.76 571.22 1634.61 605.57 1718.6 653.49 1792.24 714.94 1848.92 786.36 1881.29 867.26 1886.43 954.21 1864.17 1040.2 1816.29 1122.7 1747.58 1195.94 1569.99 1290.85 1390.8 1297.61 1260.52 1206.79 1207.08 1061.33 1235.3 917 1321.85 851.77 1440.27 916.98 1547.2 1101.36 1614.52 1332.55 1631.38 1493 1590.41 1502.15 1503.78 1350.91 1446.72 1245.42 1384.35 1142.15 1319.18 1060.79 1251.55 1019.26 1185.22 1026.33 1121.91 1084.46 1061.16 1185.12 1005.87 1312.64 956.64 1444.73 912.58 1555.84 875.18 1625.84 844.12 1640.2 818.61 1596.58 798.73 1503.5 783.66 1380.6 769.69 1207.96 760.57 1165.13 761.1 1327.7 763.43 1470.25 765.25 1599.69 765.98 1685.21 767.6 1706.09 767.5 1656.93 765.34 1549.11 763.52 1410.91 759.32 1276.25 752.54 1180.57 745.85 1150.59 736.46 1194.63 724.26 1302.86 712.07 1447.16 697.04 1589.83 679.09 1692.14 661.14 1725.79 640.49 1681.65 617.22 1572.76 593.97 1428.23 568.15 1286.63 539.87 1184.39 511.69 1146.85 481.19 1182.29 448.58 1279.61 416.31 1414.16 382.26 1550.06 346.79 1653.28 312.21 1699.6 276.84 1676.99 241.28 1591.69 207.53 1463.21 174.59 1321.53 143.28 1198.15 115.11 1118.66 89.85 1099.22 68.49 1141.01 51.7 1233.62 40.09 1353.94 34.49 1474.7 34.44 1571.52 41.13 1622.38 54.88 1617.53 73.79 1557.94 99.18 1455 130.46 1328.31 164.3 1199.05 201.59 1090.55 240.62 1019.63 277.2 995.7 311.44 1020.17 340.84 1085.21 372.14 1285.18 359.67 1453.2 291.45 1486.58 172.76 1365.45 16.54 1151.64 -148.92 947.37 -282.51 829.58 -355.55 835.86 -344.49 937.1 -256.6 1085.15 -117.38 1206.38 22.82 1257.85 72.84 1253.6 102.68 1228.41 107.56 1185.21 85.05 1126.05 35.98 1056.04 -36.7 979.86 -126.35 899.04 -225.66 819.88 -325.12 745.63 -413.96 676.21 -483.73 616.01 -526.55 565.79 -537.75 524.5 -515.89 493.5 -463.15 471.74 -386.99 458.36 -295.64 452.16 -200.63 451.38 -83.45 460.2 -36.84 490.87 -126.8 506.21 -222.02 516.93 -329.71 524.89 -435.67 529.58 -555.71 535.06 -563.97 527.19 -447.93 513.64 -342.48 503.29 -233.85 489.16 -138.41 471.21 -71.62 453.26 -43.11 431.71 -56.34 406.62 -109.35 381.48 -193.15 352.74 -294.87 320.43 -400.7 288.06 -494.21 252.13 -562.31 212.84 -596.46 173.72 -591.32 131.62 -548.14 87.04 -472.8 43.53 -375.41 -1.36 -268.76 -46.62 -165.66 -88.93 -79.14 -129.63 -19 -167.12 8.49 -198.91 1.28 -224.94 -38 -243.42 -104.35 -253.52 -187.7 -254.02 -277.16 -243.84 -363.23 -224.74 -434.21 -195.26 -482.12 -156.16 -502.53 -112.22 -492.34 -62.96 -453.05 -11.61 -388.37 35.09 -304.93 76.06 -210.91 106.64 -113.78 121.26 -22.91 118.32 54.47 94.92 149.37 -11.84 149.02 -186.49 69.4 -385.91 -59.07 -538.54 -184.15 -594.14 -266.26 -523.42 -286.48 -366.22 -235.51 -197.21 -129.14 -118.43 14.47 -194.18 164.47 -402.15 297.33 -639.5 354.43 -723.24 402.06 -765.78 439.81 -759.24 468.03 -705.7 486.5 -613.92 496.19 -500.67 494.61 -346.17 455.2 -299.45 425.41 -441.78 402.7 -575.69 380.78 -708.43 360.62 -812.73 340.33 -866.2 322.99 -857.7 308.99 -788.36 296.11 -675.11 286.94 -542.79 281.45 -422.85 277.43 -346.08 276.92 -331.19 279.63 -384.41 283.6 -494.53 290.35 -636.53 299.54 -776.35 309.55 -878.95 321.51 -918.84 335.11 -884.89 349.1 -786.23 364.34 -647.32 380.61 -504.58 396.99 -397.47 414.19 -354.19 432.14 -387.8 450.09 -490.08 468.57 -631.83 487.65 -774.35 506.83 -880.81 526.8 -922.2 547.77 -888.7 569.14 -789.5 591.89 -650.43 616.3 -506.96 641.54 -393.86 668.94 -338.57 698.82 -352.49 729.96 -431.06 764.02 -552.74 801.28 -686.74 839.99 -802.14 882.07 -870.1 927.51 -875.48 974.09 -817.35 1023.65 -708.57 1075.79 -573.21 1127.81 -438.64 1181.22 -333.13 1235.04 -276.33 1286.42 -277.51 1336.17 -333.6 1382.81 -430.1 1423.9 -547.58 1459.37 -659.78 1487.64 -744.45 1507.42 -786.58 1518 -776.98 1518.36 -718.09 1509.2 -619.37 1489.71 -498.06 1460.27 -373.88 1382.74 -185.24 1286.18 -154.39 1193.92 -272.42 1138.91 -461.22 1137.23 -600.81 1204.5 -619 1333.67 -506.74 1503.55 -313.13 1674.43 -116.3 1796.44 25.89 1836.76 72.59 1779.23 33.02 1720.53 -12.53 1647.7 -66.89 1567.94 -124.28 1491.3 -182.65 1424.56 -234.51 1375.89 -276.47 1352.61 -308.45 1357.74 -326.48 1392.75 -330.53 1455.27 -321.72 1540.14 -300.21 1639.37 -268.08 1741.99 -226.13 1837.76 -177.33 1915.77 -124.16 1966.73 -66.1 1984.84 -7.26 1967.47 50.59 1917.46 109.35 1840.3 164.98 1745.75 216.75 1647.65 267.31 1558 313.36 1489.59 354.93 1453.34 394.79 1454.3 430.48 1493.71 462.4 1567.07 493.01 1665 520.52 1774.38 545.43 1879.65 569.65 1966.14 591.88 2020.95 612.48 2035.97 632.89 2008.37 652.02 1941.58 669.97Q1941.58 669.97 1941.58 669.97" opacity="0.99"></path><path d="M1889.53 316.87C1799.33 333.92 1695.69 347.4 1592.66 357.43 1503.54 367.51 1439.94 374.26 1409.44 377.92 1457.44 386.17 1617.18 384.52 1805.34 377.72 1934.2 379.19 1939.62 385.92 1822 407.93 1631.47 452.68 1448.4 525.63 1342.43 631.9 1347.66 758.57 1451.65 903.46 1603.7 1046.42 1747.14 1154.84 1822.28 1212.03 1804.81 1196.91 1700.13 1116.6 1540.15 988.28 1370.87 855.96 1229.75 782.39 1149.84 802.6 1138.23 932.75 1189.43 1132.02 1279.01 1332.4 1378.38 1446.12 1470.41 1419.89 1528.3 1267.43 1543.81 1072.12 1518.06 960.44 1454.14 1008.53 1364.59 1210.44 1255.25 1449.71 1142.27 1582.28 1035.47 1516.86 933.08 1305.02 846.13 1100.8 774.86 1069.7 713.61 1250.14 665.2 1513.37 625.76 1653.33 592.13 1556.44 562.21 1302.39 532.77 1111.49 518.62 1102.59 504 1159.84 488.68 1271.15 473.46 1410.22 457.37 1544.22 440.31 1640.15 423.26 1673.98 405.46 1637.35 387 1540.28 368.63 1406.3 349.8 1267.84 330.74 1157.29 293.75 1107.59 258.22 1291.83 227.53 1541.59 202.66 1647.23 187.89 1518 187.26 1260.2 196.65 1066.8 223.04 1075.47 266.33 1260.28 314.03 1480.6 369.37 1569.83 422.71 1469.36 456.27 1240.37 465.83 1023 439.02 933.58 370.95 1006.52 262.29 1181.46 121.46 1349.65 -26.69 1425.47 -163.1 1364.89 -259 1200.48 -292.09 993.61 -254.74 825.46 -153.9 742.96 -24.88 757.69 97.11 846.7 166.28 964.56 148.25 1079.18 40.06 1147.12 -133.79 1156.18 -316.26 1109.09 -448.05 1016.76 -478.28 901.14 -397.3 769.94 -236.43 647.25 -65.14 542.52 33.21 449.82 11.51 379.05 -130.5 325.66 -331.83 282.49 -501.6 248.5 -556.35 217.93 -529.22 203.69 -468.17 189.22 -380.76 174.1 -279.44 159.16 -176.66 143.24 -86.46 126.19 -22.13 109.14 7.93 91.16 0.4 72.42 -43.7 53.86 -117.45 34.88 -210.47 15.9 -407.03 -19.95 -531.79 -51.41 -526.04 -72.56 -394.04 -83.5 -196.55 -75.91 -20.98 -45.09 62.42 -2.24 25.32 59.87 -105.21 131.97 -273.27 188.49 -402.8 223.21 -443.63 214.31 -381.78 149.27 -237.39 26.99 -59.5 -140.18 153.25 -380.5 119.76 -419.61 -46.8 -196.79 -148.27 -77.06 -203.71 -59.01 -203.38 -175.08 -149.13 -383.53 -51.15 -596.46 71.22 -704.93 206.45 -651.05 332.51 -466.74 438.2 -268.16 522.42 -198.08 578.61 -315.07 611.01 -560.37 622.53 -770.21 620.32 -801.12 612.03 -627 595.24 -388.44 581.33 -275.45 574.34 -394.2 578.7 -693.85 625.41 -319.91 649.62 -335.8 666.67 -431.7 686.25 -564.82 708.29 -702.2 730.36 -811.83 754.92 -866.56 781.93 -854.32 836.06 -656.71 899.97 -392.61 972.55 -282.51 1043.86 -409.27 1120.94 -656.21 1199.61 -817.43 1269.78 -767.14 1332.57 -540.73 1380.16 -303.88 1406.86 -213.43 1408.31 -318.17 1380.09 -527.01 1330.41 -698.53 1258.72 -713.6 1176.04 -566.43 1106.23 -335.62 1059 -145.16 1053.53 -78.64 1101.97 -152.06 1204.24 -309.87 1350.39 -464.45 1510.25 -549.92 1655.66 -523.32 1750.19 -400.98 1768.67 -219.88 1705.93 -40.79 1579.04 92.09 1436.67 159.8 1325.31 156.98 1293.86 104.57 1365.09 17.62 1522.4 -69.63 1715.46 -137.2 1871 -184.38 1930.34 -196.78 1866.19 -179.66 1709.88 -139.8 1528.68 -83.37 1409.82 -20.52 1417.2 50.58 1551.97 117.69 1755.27 175.87 1851.67 205.43 1927.98 232.13 1973.82 255.73 1983.07 279.39 1953.88 299.81 1889.58 316.86Q1889.53 316.87 1889.53 316.87" opacity="0.59"></path><path d="M1837.53 123.14C1654.65 155.44 1468.37 191.14 1363.02 231.79 1383.27 274.76 1514.4 326.98 1693.19 392.02 1844.4 463.65 1899.92 551.56 1839.46 655.59 1686.96 761.24 1500.95 872.91 1348.01 978.46 1276.02 1058.3 1303 1105.6 1408.34 1105.56 1554.31 1059.61 1684.11 969.72 1755.98 854.56 1751 755.9 1668.13 699.4 1531.99 718.75 1371.44 822.92 1225 995.12 1118.94 1189.53 1065.72 1336 1068.38 1385.19 1114.42 1311.66 1193 1153.91 1279.2 983.24 1355 894.52 1414.84 950.19 1443.73 1136.08 1441.22 1366.05 1411.07 1513.3 1356.54 1496.49 1286.36 1322.46 1202.27 1109.98 1115.05 1000.69 1030.84 1084.08 945.01 1313.97 867.62 1538.02 800.02 1594.53 734.24 1442.71 677.94 1195.68 630.42 1049.02 583.75 1127.24 544.38 1372.83 512.08 1588.15 479.77 1592.41 455.28 1383.57 439.02 1135.69 423.61 1043.61 417.9 1173.31 422.75 1413.52 429.42 1581.27 446.96 1546.89 474.17 1339.2 499.76 1099.89 529.59 988.36 557.69 1063.07 571.89 1265.48 571.82 1453.24 548.92 1508.43 498.38 1398.55 417.98 1184.08 308.35 978.42 182.76 874.13 48.46 910.57 -76.33 1049.01 -168.59 1220.01 -215.62 1334.34 -204.75 1345.61 -141.03 1250.34 -34.92 1083.65 87.47 902.38 185.46 749.62 232.36 665.41 203.7 654.18 98.18 707.5 -62.91 796.24 -237.71 889.81 -371.86 975.66 -425.17 1027.31 -376.86 1040.84 -247.61 1021.17 -82.63 971.13 51.62 902.95 93.85 818.71 22.91 732.65 -140.77 652.42 -332.02 570.04 -472.66 499.1 -499.3 441.04 -400.35 383.47 -217.34 338.43 -34.46 306.11 58.22 273.8 19.75 254.99 -126.93 249.63 -315.57 244.75 -456.81 253.69 -490.01 275.12 -403.11 294.42 -232.07 320.64 -46.63 346.26 85.32 355.83 117.74 348.5 48.76 312.19 -92.09 242.68 -244.77 136.44 -353.18 -2.44 -383.6 -149.06 -322.93 -289.31 -192.3 -392.43 -25.31 -431.03 131.91 -394.92 244.35 -288.4 293.61 -153.36 276.22 -31.02 208.47 21.91 107.57 -31.67 5.87 -186.3 -73.48 -395.46 -120.78 -572.06 -122.96 -644.51 -83.54 -573.88 -8.25 -401.87 90.81 -218.7 200.02 -137.61 315.54 -221.59 422.3 -435.66 514.75 -661.77 596.11 -760.19 660.06 -669.74 709.16 -448.68 747.44 -259.2 776.23 -240.19 799.94 -420.37 818.56 -673.06 837.23 -812.32 858.88 -726.69 879.36 -485.22 905.21 -279.61 937.52 -283.8 969.83 -499.08 1007.82 -741.42 1050.28 -813.31 1091.56 -660.31 1134.89 -403.77 1177.21 -239.44 1214.43 -283.43 1245.5 -492.03 1265.84 -703.71 1275.36 -768.92 1268.8 -638.62 1243.43 -402.47 1206.98 -204.73 1154.82 -161.55 1092.35 -279.96 1036.19 -481.11 988.61 -635.71 963.11 -657.76 973.47 -535.43 1023.73 -328.8 1117.25 -132.89 1242.83 -21.17 1388.89 -30.02 1532.15 -134.12 1642.25 -286.18 1699.97 -414.03 1688.89 -471.99 1614.6 -445.14 1493.35 -340.57 1360.01 -192.11 1263.01 -27.16 1233.62 114.23 1292.85 213.24 1430.06 266.35 1609.07 273.66 1773.62 249.82 1866.3 200.27 1854.93 145.98 1741.22 98.95 1480.58 27.52 1909.34 76.74 1837.58 123.13Q1837.53 123.14 1837.53 123.14" opacity="0.89"></path><path d="M1785.58 460.2C1613.86 490.71 1434.45 533.51 1320.36 587.46 1315.11 640.64 1415.94 703.03 1577.62 771.07 1739.07 833.33 1834.54 893.58 1830.66 943.73 1730.04 975.96 1567.26 985.74 1396.57 965.64 1267.33 921.78 1216.06 850.77 1248.57 762.11 1350.45 682.82 1482.57 623.53 1603.26 608.75 1683.24 655.17 1697.06 764.27 1644.24 924.13 1535.92 1094.45 1396.45 1238.72 1253.46 1310.97 1125.83 1287.13 1035.05 1173.63 987.5 1011.63 983.22 877.7 1014.4 831.15 1067.64 910.6 1137.13 1092.26 1204.33 1304.78 1259.49 1448.95 1303.61 1452.19 1326.23 1313.05 1328.23 1107.4 1314.17 963.32 1283.98 970.86 1242.98 1141.11 1192.59 1376.01 1138.34 1533.84 1084.5 1509.56 1027.47 1321.03 974.77 1094.65 928.53 993.43 881.75 1097.13 842.66 1335.73 812.15 1536.14 781.64 1546.73 760.41 1360.9 747.77 1118.85 734.57 991.85 728.7 1064.73 728.19 1276.35 724.48 1481 722.21 1535.94 717.24 1408.97 702.87 1178.72 678.87 985.46 640.05 934.45 585.18 1044.45 510.98 1239.09 416.77 1402.4 311.5 1448.94 195.66 1350.73 79.14 1159.23 -59.41 891.43 -108.76 978.82 3.3 1189.96 106.3 1271.91 207.68 1264.87 279.97 1176.97 296.76 1030.2 248.96 866.42 137.21 721.67 -15.24 613.93 -176.93 560.47 -306.02 555.67 -365.76 592.88 -339.35 652.44 -232.47 716.47 -84.15 783.46 58.74 833.74 142.16 863.51 128.81 880.49 18.77 877.88 -154.45 860.82 -327.9 835.31 -437.71 802.75 -438.51 768.06 -330.45 731.19 -154.13 696.54 17.58 666.02 108.47 635.51 82.57 609.85 -44.69 587.3 -221.83 562.55 -372.95 536.54 -439.3 504.52 -398.01 464.04 -263.96 410.13 -87.51 337.8 72.87 252.67 164.43 148.2 164.59 28.33 78.58 -88.58 -57.02 -199.7 -194.42 -287.02 -294.74 -332.35 -323.75 -327.55 -275.95 -266.84 -163.22 -169.14 -14.23 -50.77 136.73 52.34 263.86 96.6 342.73 61.76 367.26 -60.15 339.45 -237.49 274.26 -423.15 191.37 -551.84 102.03 -573.12 29.12 -478.61 -16.96 -306.84 -35.45 -147.11 -21.02 -78.44 20.8 -152.16 85.98 -342.67 165.93 -562.19 252.04 -694.58 344.91 -665.98 433.53 -492.6 514.14 -279.56 592.45 -169.78 660.44 -239.25 718.5 -455.65 773.52 -679.06 820.51 -760.97 860.91 -640.06 900.28 -404.06 934.96 -221.28 965.47 -231.8 995.99 -432.17 1021.61 -667.71 1041.68 -765.42 1060.71 -658.21 1072.29 -422.87 1074.81 -222.54 1074.3 -186.43 1062.83 -329.65 1039.89 -547.34 1014.63 -700.39 980.21 -688.11 940.22 -521.69 892.8 -211.65 888.9 -314.03 971.53 -555.41 1064.65 -603.11 1182.97 -522.61 1315.98 -352.67 1442.52 -154.63 1549.61 -3.02 1617.41 60.82 1632.89 28.59 1592.1 -73.76 1501 -200.42 1386.06 -316.62 1271.04 -380.33 1190.09 -379.74 1174.06 -317.94 1232.63 -210.03 1360.18 -80.64 1524.79 58.11 1685.27 180.69 1793.65 277.44 1815.85 350.43 1744.16 394.86 1600.99 417.99 1441.76 423.21 1322.28 419.5 1292.77 414.78 1370.89 404.28 1531 400.46 1714.17 406.71 1847.48 412.19 1876.47 429.69 1785.58 460.2Q1785.58 460.2 1785.58 460.2" opacity="0.99"></path><path d="M1733.58 681.83C1572.97 710.55 1401.44 736.59 1281.27 758.53 1253.39 778.56 1323.61 790.9 1462.08 792.21 1622.1 787.57 1744.87 767.96 1791.02 731.89 1748.03 691.05 1628.54 638.39 1469.66 581 1313.04 537.19 1200.98 508.91 1156.78 510.61 1186.04 552.41 1273.11 637.43 1389.05 763.76 1507.68 909.39 1594.76 1057.56 1632.12 1176.77 1614.73 1235.67 1544.86 1220.29 1437.98 1129.41 1308.21 996.38 1178.29 859.45 1064.62 773.24 974.53 782.22 917.64 893.58 892.64 1079.61 897.34 1269.84 923.66 1393.41 962.18 1393.77 1011.89 1273.01 1059.59 1086.09 1099.58 929.22 1136.19 893.94 1159.89 1006.54 1170.71 1219.08 1174.95 1417.93 1168.16 1494.96 1152.84 1401.66 1133.56 1196.12 1109.2 1001.46 1082.03 944.82 1053.77 1069.05 1024.83 1298.5 996.11 1484.14 967.39 1500.32 939.58 1337.37 911.9 1105.92 883.13 952.34 852.36 969.94 817.49 1138.23 778.64 1352.75 732.23 1478.78 675.88 1445.26 612.96 1271.62 538.26 1053.29 451.87 902.2 362.11 886.53 265.88 1003.2 169.01 1181.99 83.35 1337.48 11.24 1390.74 -37.71 1322 -56.97 1158.34 -42.83 965.54 6.16 811.54 78.75 739.17 169.23 763.36 261.36 859.58 330.6 994.24 364.62 1114.49 348.1 1185.7 276.82 1194.44 157.77 1136.82 9.24 1031.44 -136.59 894.43 -251.49 755.34 -306.37 633.84 -287.79 535.15 -199.13 471.24 -63.56 438.44 74.26 432.78 175.05 445.68 201.83 466.9 139.48 498.32 2.99 525.93 -168.1 544.81 -317.65 564.29 -396.33 571.89 -374.12 567.07 -259.64 561.68 -91.02 544.6 69.58 515.88 158.28 487.16 143.9 447.49 35.94 396.95 -126.73 345.83 -281.38 283.12 -373.91 209.48 -375.61 136.44 -284.92 55.63 -133.51 -27.89 33.48 -101.22 165.71 -165.13 229.36 -209.25 211.62 -226.23 124.97 -210.86 0.63 -159.34 -129.14 -85 -224.12 8.3 -261.53 101.06 -234.77 162.18 -148.87 177.07 -24.29 127.27 118.58 14.98 251.65 -144.69 355.68 -317 421.25 -450.87 442.59 -510.93 425.77 -472.49 376.17 -352.42 309.8 -191.6 240.33 -57.82 171.43 -18.96 118.5 -100.02 85.98 -281.12 71.05 -485.52 78.07 -625.62 103.06 -631.04 142.85 -501.02 193.4 -301.4 249.35 -143.94 311.92 -126.59 373.77 -266.29 431.69 -491.89 491.22 -671.28 544.33 -697.39 589.73 -549.53 635.28 -323.77 672.69 -163.68 701.41 -179.8 739.8 -478.68 771.41 -546.74 767.04 -228.56 763.29 -124.13 754.64 -187.41 744.17 -370.04 740.33 -566.39 740.79 -660.33 750.76 -604.01 775.55 -426.1 817.06 -215.78 879.15 -69.39 958.82 -44.11 1057.53 -139.84 1170.69 -300.17 1284.43 -456.3 1393.54 -535.69 1484.23 -510.77 1542.14 -390.66 1560.23 -217.89 1532.31 -47.21 1465.92 81.31 1368.7 136.12 1259.73 118.32 1169.05 40.21 1115.13 -65.21 1118.28 -166.58 1185.59 -248.64 1308.39 -287.89 1463.8 -282.54 1613.75 -237.08 1723.81 -160.27 1762.59 -66.7 1719.99 40.45 1606.46 144.13 1455.67 237.07 1320.47 325.24 1243.49 398.06 1256.27 456.86 1359.89 509.7 1522.99 552.48 1691.35 588.39 1804.99 622.39 1822.28 653.11 1733.58 681.83Q1733.58 681.83 1733.58 681.83" opacity="0.97"></path><path d="M1681.58 363.09C1532.05 390.02 1369.28 405.28 1245.63 409.59 1198.31 414.33 1238.84 409.29 1349.83 396.77 1498.04 387.99 1634.44 377 1719.43 369.64 1731.86 375.33 1667 394.99 1544.28 436.07 1392.72 499.53 1249.86 589.01 1145.97 702.87 1098.9 825.23 1113.81 950.83 1179.4 1061.15 1280.67 1133.76 1389.28 1157.83 1481.81 1122.84 1545.15 1039.19 1564.18 920.57 1538.54 798.28 1472.78 716.34 1377.54 700.45 1267.1 769.75 1149.57 911.57 1040.82 1092.07 949.05 1255.72 875.52 1343.94 825.63 1326.22 797.06 1205.31 787.84 1035.67 793.07 886.89 806.81 832.69 830.08 907.95 853.82 1086.75 874.1 1292.11 896.24 1424.72 911.24 1419.9 917.91 1276.16 923.94 1072.81 921.4 917.87 910.4 903.12 899.01 1042.76 879.83 1261.08 852.91 1432.14 825.98 1453.17 791.95 1312.66 750.9 1095.98 709.45 924.55 660.33 891.79 603.51 1007.33 546.07 1206.32 481.2 1376.53 410.2 1430.6 341.08 1343.47 269.51 1157.61 199.59 960.9 139.19 835.62 88.46 831.09 53.47 935.91 37.84 1101.91 44.8 1251.4 76.83 1325.17 127.11 1298.45 195.79 1179.81 274.79 1012.13 346.71 841.24 404.99 717.7 435.45 665.6 425.81 688.79 373.17 769.54 278.04 876.8 153.71 988.21 15.13 1069.94 -114.16 1107.77 -207.79 1100.07 -248.78 1047.82 -225.73 964.53 -145.86 857.46 -24.94 745.14 106.88 639.38 209.86 538.98 257.19 456.34 229.56 391.6 129.38 338.8 -19.86 300.24 -178.46 271.19 -299.84 248.81 -348.3 229.7 -306.3 210.12 -187.99 192.19 -27.94 170.46 121.58 143.54 207.66 116.62 203.64 85.14 114.54 50.63 -31.31 17.77 -183.54 -14.8 -294.58 -43.19 -333.93 -64.92 -288.54 -76.25 -173.95 -72.31 -20.8 -56.41 129.25 -21.6 239.84 32.12 288.11 91.23 267.18 158.04 189.7 220.92 74.95 260.01 -43.53 269.36 -137.92 235.57 -191.89 156.27 -191.33 34.47 -139.15 -115.45 -44.08 -261.24 76.4 -378.97 202.99 -437.47 323.25 -420.67 419.9 -330.76 486 -191.67 520.03 -55.77 523.01 32.9 502.12 31.61 460.29 -70.16 409.74 -245.73 358.88 -435.75 306.68 -564.61 264.66 -582.05 235.4 -476.52 210.26 -215.39 232.7 -220 268.35 -520.9 297.56 -646.87 328.73 -622.08 359.69 -456.01 391.57 -244.65 421.41 -106.83 448.33 -127.8 475.26 -298.82 498.62 -514.42 519.2 -648.78 540.68 -628.76 561.18 -465.92 582.74 -252.18 607.94 -98.02 637.68 -80.3 674.81 -197.7 719.25 -387.86 774.59 -549.15 842.62 -604.7 918.54 -530.79 1006.06 -360.08 1102.47 -166.41 1197.54 -21.47 1291.01 22.34 1374.33 -37.83 1436.72 -173.43 1473.81 -323.96 1478.3 -434 1450.74 -471.51 1391.05 -422.03 1306.08 -304.8 1214.78 -147.22 1127.89 8.36 1064.61 130.54 1044.23 204.06 1073.65 220.05 1155.64 188.94 1278.07 120.12 1422.66 37.44 1561.42 -40.7 1662.91 -110.35 1705.79 -154.34 1677.25 -171.13 1586.39 -165.56 1453.86 -137.41 1315.91 -94.24 1216.51 -38.03 1183.98 22.82 1233.72 82.38 1355.15 145.68 1515.3 202.39 1666.49 250.09 1760.91 298.22 1767.66 336.17 1681.58 363.09Q1681.58 363.09 1681.58 363.09" opacity="0.68"></path><path d="M1629.58 115.09C1491.06 140.22 1337.84 166.19 1213.21 194.04 1149.96 223.38 1162.85 257.45 1244.06 298.93 1372.02 345.45 1508.66 403.22 1618.34 474.32 1676.98 551.57 1668.44 641.28 1597.07 740.13 1478.36 834.84 1338.71 925.84 1206.25 1002.07 1102.45 1050.84 1045.21 1066.86 1038.67 1042.55 1080.32 983.79 1156.03 893.85 1247.85 788.15 1343.42 696.49 1421.78 635.79 1471.93 629.59 1490.87 688.99 1474.17 809.09 1426.78 969.16 1353.32 1127.21 1263.55 1246.07 1167.1 1288.13 1066.7 1240.37 973.44 1115.8 891.76 956.12 819.9 826.43 763.03 775.81 719.83 834.57 687.6 986.93 665.54 1179.47 650.23 1335.2 641.51 1387.05 635.03 1311.74 627.98 1140.1 623.48 955.92 615.59 845.27 602.73 868.08 590.41 1017.97 572 1223.44 546.87 1380.14 521.74 1405.26 490.49 1286.49 453.87 1087.99 417.78 907.47 377.44 832.07 334.54 891.22 294.2 1053.88 254.13 1237.7 217.26 1357.85 186.97 1364.32 164.4 1253.37 153.09 1073.9 152.74 893.19 167.15 779.56 197.74 766.06 238.16 850.4 291.37 992.46 353.04 1136.88 410.76 1239.24 463.13 1262.42 500.63 1203.75 512.07 1078.98 494.26 923.38 442.39 774.7 359.29 658.23 249.58 596.88 124.33 591.85 2.84 637.64 -100.84 715 -168.66 802.65 -188.28 890.94 -155.39 957.84 -74 996.1 36.03 1007.54 155.21 989.17 255.5 948.09 308.44 887.71 300.63 817.15 227.8 744.14 103.95 665.59 -44.68 592.6 -182.34 528.15 -273.25 464.08 -293.54 409.93 -235.26 365.84 -115.61 322.33 35.06 288 173.58 262.87 256.62 237.74 261.75 222.4 190.75 216.96 63.36 212.1 -81.15 218.02 -202.77 234.7 -272.33 251.75 -269.99 278.19 -198.71 311.14 -75.84 338.57 68.89 364.5 203.16 381.34 301.6 378.88 345.53 354.8 332.14 302.11 267.07 222.6 170 115.65 63.77 -11.36 -34.85 -137.74 -103.18 -252.51 -131.08 -334.27 -116.71 -365.22 -61.59 -338.38 23.93 -254.87 131.31 -139.13 244.92 -14.89 352.65 80.21 449.58 109.24 525.5 58.09 578.44 -70.41 609.32 -240.99 619.42 -407.4 613.88 -514.18 593.57 -523.12 566.54 -429.99 538.06 -267.71 505.16 -106.64 476.97 -12.03 455.8 -32.65 435.55 -166.96 423.87 -362.77 420.74 -535.15 419.21 -604.02 425.33 -536.07 438.37 -360.54 452 -167.01 471.51 -50.74 496.64 -75.8 521.77 -232.46 551.92 -435.4 587.24 -580.35 623.14 -598.24 665.25 -480.23 714.18 -286.36 764.7 -105 822.93 -17.65 888.77 -55.29 955.53 -196.83 1028.35 -373.01 1104.8 -506.98 1176.83 -547.33 1246.33 -476.25 1307.89 -324.15 1354.7 -142.05 1384.66 6.86 1392.5 80.79 1378.29 64.91 1339.78 -25.95 1278.8 -154.33 1207.03 -284.73 1127.92 -373.46 1053.48 -399.94 1000.88 -360.81 977.13 -265.6 992.43 -137.99 1050 3.65 1146.32 131 1271.11 228.49 1403.5 291.53 1524.93 315.57 1612.41 308.06 1648.21 273.09 1624.76 224.56 1544.74 173.4 1428.89 118.09 1300.51 73.02 1191.82 41.35 1134.72 15.85 1144.38 4.62 1223.64 5.5 1354.96 11.41 1506.87 25.57 1639.24 45.17 1715.21 66.27 1712.62 89.96 1629.58 115.09Q1629.58 115.09 1629.58 115.09" opacity="0.55"></path><path d="M1578.63 413.16C1451.37 436.49 1308.36 469.47 1184.77 511.48 1108.69 553.29 1096.29 603.52 1146.72 660.6 1248 715.51 1372.89 773.95 1492.24 831.86 1583.36 881.14 1624.48 922.2 1609.23 948.67 1541.63 957.16 1434.8 943.66 1309.02 905.14 1182.62 849.6 1076.91 775.87 1005.08 692.97 973.44 620.77 982.6 566.38 1025.22 546 1094.86 571.57 1175.7 645.22 1254.84 762.98 1326.77 903.57 1378.35 1046.73 1405.51 1161.89 1409.12 1220.23 1387.68 1208.13 1345.72 1124.62 1285.97 996.21 1215.02 855.81 1138.95 749.38 1057.5 718.63 978.85 778 906.11 917.53 835.71 1093.14 773.79 1249.41 720.38 1329.29 670.89 1302.64 628.8 1177.5 592.81 1001.22 559.26 849.52 529.76 784.33 503.12 839.1 477.17 994.21 452.73 1185.38 429.4 1327.95 406.06 1356.33 384.38 1258.26 364.88 1080.58 346.08 899.32 330.79 791.11 320.33 795.82 312.32 908.17 311.18 1076.59 318.33 1231.54 329.41 1316.63 349.89 1297.82 379.85 1185.54 412.15 1017.33 451.37 850.6 494.51 735.27 532.26 699.98 566.01 748.56 589.81 856.79 595.8 993.31 582.51 1112.61 545.51 1183.63 484.96 1192.69 401.34 1136.63 298.83 1031.95 189.11 896.6 79.15 759.57 -18.03 642.5 -88.21 555.75 -123.35 510.39 -116.01 503.47 -68.47 531.18 14.61 581.23 120.19 640.95 225.16 708.21 312.98 767.21 363.48 812.38 361.63 848.14 305.31 866.39 201.02 869.22 68.51 862.02 -67.52 843.99 -177.81 819.29 -237.24 789.62 -231.7 758.13 -160.24 727.75 -41.26 696.18 99.37 668.15 226.63 644.81 305.63 621.48 317.94 603.4 263.34 589.52 154.97 574.44 22.48 561.15 -101.83 546.81 -192.36 527.51 -226.53 502.32 -198.93 467.18 -116.33 422.01 3.76 362.32 136.86 286.12 260.7 200.51 352.73 102.08 400.69 -3.48 400.08 -101.52 355.96 -188.76 281 -252.44 186.34 -281.48 92.6 -270.85 14.63 -217.49 -40.58 -133.8 -62.46 -28.81 -50.59 75.94 -7.68 150.04 60.77 176.98 145.81 140.37 242.87 41.8 340.63 -103.48 432.08 -264.29 516.66 -396.82 587.01 -468.01 642.31 -453.54 684.69 -359.02 713.31 -211.3 731.15 -60.19 739.22 34.97 741.3 38.58 740.73 -59.66 735.45 -227.77 731.38 -407.33 730.7 -528.7 728.53 -542.41 731.63 -441.06 741.03 -264.42 750.17 -91.35 766.19 4.34 789.52 -24.03 812.86 -166.6 842.96 -355.4 879.26 -505.9 915.31 -556.06 957 -484 1003.18 -323.3 1047.86 -138.01 1095.15 -1.73 1142.78 38.09 1185.68 -28.62 1225.05 -169.7 1257.41 -328.21 1280 -450.63 1290.82 -490.99 1286.75 -439.42 1269.77 -312.18 1236.62 -149.17 1188 3.53 1132.51 111.34 1069.49 149.42 1005.8 118.63 954.16 31.02 917.74 -83 905.41 -193.01 924.12 -280.19 975.12 -321.8 1057.9 -313.98 1163.43 -260.21 1283.15 -171.1 1402.1 -62.94 1501.35 55.92 1568.09 166.84 1589.51 260.7 1562.37 337.53 1489.34 390.46 1382.61 422.42 1266.61 436.38 1161.71 436.76 1092.28 429.82 1077.84 414.24 1123.16 399.02 1222.69 388.13 1356.02 375.05 1495.37 369.6 1608.36 373.25 1667.58 376.69 1657.63 389.82 1578.63 413.16Q1578.63 413.16 1578.63 413.16" opacity="0.19"></path><path d="M1525.58 685.98C1408.82 707.52 1276.63 728.61 1156.96 748.36 1073.01 766.99 1040.48 782.12 1062.8 791.55 1134.9 797 1239 793.41 1353.35 778.49 1459.45 757.42 1535.06 723.75 1568.24 678.05 1555.58 630.46 1498.71 577.12 1408.31 524.44 1296.23 485.49 1179.71 461.87 1073.62 462.87 987.47 494.7 931.12 559.21 906.8 655.74 914.23 771.79 947.95 898.74 999.82 1018.45 1065.92 1108.04 1133.92 1154.39 1196.11 1144.82 1251.61 1082.09 1291.46 975.65 1314.03 848.62 1321.57 737.67 1312.11 668.94 1288.55 667.57 1252.82 740.54 1208.16 874.36 1158.35 1037.04 1102.53 1181.48 1046.25 1267.63 992.02 1266.11 936.14 1177.79 884.6 1028.61 838.49 868.64 792.37 758.08 752.14 736.14 718.12 816.18 684.23 971.66 656.39 1147.33 634.85 1276.14 613.31 1307.1 598.58 1228.59 590.52 1073.57 582.03 834 598.28 846.79 620.91 1067.76 636.05 1200.62 654.08 1264.24 672.57 1241.67 685.05 1140.73 693.32 991.76 693.68 836.57 681.87 711.03 657 645.55 616.26 648.29 560.49 713.9 488.59 819.04 402.27 934.73 309.25 1039.68 211.68 1106.95 117.35 1126.3 37.25 1097.22 -23.34 1025.39 -56.21 925.55 -57.32 807.92 -24.95 691.89 38.76 589.75 122.42 504.76 218.07 445.87 310.94 411.96 382.12 400.7 421.44 407.75 418.31 426.23 369.35 456.34 279.71 488.18 161.45 516.91 34.95 547.83 -79.42 571.1 -159.83 585.34 -190.47 598.69 -164.28 602.78 -84.59 597.88 30.82 592.46 160.82 578.92 277.58 557.38 353.31 535.85 372.94 506.82 334.71 470.3 246.51 433.24 129.74 387.82 9.28 333.85 -93.84 278.99 -157.25 215.82 -170.58 145.83 -133.14 78.02 -51.57 7.92 58.71 -59.51 181.56 -115.33 296.69 -158.79 388.46 -182.9 447.21 -184.37 466.95 -159.82 449.87 -108.04 399.78 -39.1 328.61 44.85 248.58 131.67 166.42 200.7 96.61 242.97 46.35 243.84 16.96 196.28 13.47 102.14 33.83 -28.23 75.48 -169.35 133.98 -298.49 203.29 -386.54 281.99 -411.73 362.18 -367.14 439.47 -260.82 515.64 -124.85 584.13 6.57 643.89 91.74 698.5 98.54 744.36 20.93 782.62 -124.07 816.4 -292.16 844.71 -432.51 869.23 -496.7 891.43 -462.04 911.97 -338.26 932.1 -168.04 951.62 -17.26 971.92 59.1 993.46 28.19 1015 -100.58 1037.27 -274.06 1059.7 -425.3 1081.53 -501.13 1102.32 -472.88 1120.74 -354.04 1136.85 -185.76 1148.44 -26.28 1153.74 74.21 1154.56 87.91 1146.95 15.8 1129.67 -112.83 1107.23 -259.73 1075.14 -376.01 1034.34 -429.78 992.42 -409.21 946.57 -319.62 901.06 -186.24 864.94 -36.79 838.51 93.64 827.68 181.81 838.13 216.81 871.21 197.36 928.82 135.99 1007.31 44.52 1104.01 -52.85 1211.6 -138.08 1317.07 -203.79 1412.22 -236.25 1484.74 -234.88 1524.24 -202.69 1525.38 -144.74 1485.84 -70.42 1413.28 17.61 1315.7 107.36 1208.64 192.27 1114.14 275.3 1046.59 347.23 1021.31 407.37 1046.79 461.37 1120.49 504.86 1231.93 540.03 1360.7 571.23 1483.81 597.44 1576.27 620.76 1618.76 642.96 1601.31 664.44 1525.58 685.98Q1525.58 685.98 1525.58 685.98" opacity="0.53"></path><path d="M1473.53 410.34C1367.49 430.08 1246.56 441.18 1132.45 443.99 1019.28 444.24 1071.81 409.51 1208.03 381.46 1313.09 366.83 1406.17 354.23 1473.86 348.17 1509.31 354.49 1506.23 374.3 1466.9 411.92 1396.48 466.93 1304.51 541.48 1202.45 634.05 1098.52 734.39 1004.86 839.98 928.82 940.08 858.42 1045.7 865.84 1026.96 923.24 897.38 974.76 791.08 1027.07 690.82 1075.57 619.67 1121.84 598.67 1158.64 635.1 1184.79 728.41 1203.59 860.65 1211.37 1007.32 1209.5 1135.01 1200.81 1211.14 1184.87 1216.93 1163.83 1147.77 1138.65 1023.98 1111.05 876.72 1082.87 749.23 1052.92 683.48 1024.2 699.88 997.87 798.09 971.13 949.52 947.61 1108.78 927.87 1224.15 908.13 1256.86 892.62 1196.38 880.9 1064.98 868.77 903.71 859.6 762.89 852.31 682.74 843.26 683.78 834.28 761.6 823.64 889.19 808.86 1032.26 789.73 1147.54 764.2 1205.77 731.86 1194.9 690.71 1117.53 639.49 994.62 580.92 851.27 512.65 719.96 435.95 624.69 357.02 578.58 275.32 586.36 195.55 639.1 125.47 726.25 67.23 825.55 26.79 918.22 8.33 994.61 14.25 1039.25 46.06 1049.01 98.78 1025.58 170.46 972.63 253.82 899.24 335.33 809.58 408.17 715.85 460.97 625.82 482.69 538.91 469.68 464.38 419.76 403.51 337.6 352.53 231.67 314.44 115.47 286.58 6.64 266.32 -79.85 252.03 -129.32 240.6 -133.56 232.61 -90.42 224.01 -5.63 212.78 104.56 202.36 223.49 187.66 329.53 167.92 401.01 148.18 425.97 123.85 401.94 95.82 333.14 68.59 234.36 39.3 123.89 10.05 17.73 -15.75 -64.15 -38.04 -109.7 -53.6 -114.17 -61.57 -76.3 -58.56 -3.32 -41.8 95.27 -15.15 205.14 26 312.27 80.48 406.59 138.09 476.94 200.35 518.43 259.59 529.38 302.56 511.93 326.14 471.97 321.33 413.07 283.33 345.99 211.59 278.83 109.33 213.84 -9.2 160.82 -133.15 123.2 -243.62 99.88 -319.69 94.53 -349.47 105.46 -323.93 130.6 -249.24 167.92 -137.07 213.7 -11.33 267.69 93.97 324.89 155.27 382.3 151.69 442.33 79.01 499.33 -49.1 551.84 -203.31 604.2 -342.05 651.14 -429.33 692.35 -438.01 732.91 -365.51 768.04 -230.53 797.86 -73.16 827.41 54.34 852.1 112.86 871.84 80.2 891.58 -35.13 905.91 -192.38 914.82 -339.93 923.47 -434.26 926.23 -444.89 922.91 -371.55 918.93 -236.45 908.57 -79.76 892.03 55.18 875.34 135.5 853.41 142.59 827.6 80.95 804.41 -32.25 780.57 -162.84 759 -277.47 745.63 -353.18 739.79 -370.49 745.08 -328.94 764.58 -237.24 799.32 -115 850.89 14.6 916.76 134.69 996.9 224.97 1087.76 276.96 1180.8 288.68 1272.53 263.74 1354.74 212.4 1418.02 140.55 1457.45 64.35 1467.06 -5.55 1446.13 -67.69 1394.9 -110.77 1318.2 -133.37 1228.68 -138.57 1134.9 -125.01 1050.78 -97.12 992.26 -56.84 967.25 -9.17 982.86 41.27 1039.55 96.78 1130.87 150.09 1244.65 198.66 1362.74 248.32 1467.33 291.42 1540.04 327.02 1567.98 362.67 1545.01 390.6 1473.53 410.34Q1473.53 410.34 1473.53 410.34" opacity="0.27"></path><path d="M1421.53 114.85C1326.09 132.8 1216.75 150.05 1109.96 167.16 1020.05 185.05 959.34 204.33 934.5 226.53 947.93 251.62 995.34 282.21 1068.19 320.21 1158.33 363.41 1251.08 416.06 1334.56 478.92 1401.68 546.38 1442.51 622.3 1453.83 704 1436.09 782.61 1391.06 858.69 1324.68 925.62 1149.38 1003.92 972.8 985.17 841.01 855.02 767.15 618.69 848.63 693.66 898.13 877.97 932.7 1003.86 962.92 1105.53 987.5 1161.42 1010.56 1159.26 1027.01 1097.87 1036.93 988.46 1044.77 858.39 1046.73 734.95 1043.47 649.71 1038.92 627.51 1030.22 675.11 1018.01 784.15 1005.42 927.61 990.05 1069.84 972.1 1172.15 954.15 1205.8 934.05 1161.68 911.68 1054.04 888.92 911.05 863.17 770.22 833.87 665.71 803.28 620.37 768.08 642.45 727.67 722.22 685.18 841.23 636.85 968.02 582.68 1073.95 527 1139.82 466.45 1150.27 402.4 1106.06 340.19 1015.84 278.06 897.66 219.08 772.76 127.45 568.89 81.7 511.29 105.62 589.55 190.36 749.75 324.37 890.44 462.3 956.79 509.99 961.44 537.62 945.16 539.35 912.33 512.02 864.91 456.57 808.64 376.29 748.54 279.65 682.99 175.21 619.58 74.95 560.93 -8.02 502.14 -64 450.14 -84.36 405.43 -66.45 361.75 -11.02 324.98 75.33 294.86 178.57 265.16 286.09 241.34 381.53 223.39 448.34 205.44 477.28 193.78 465.68 188.51 415.27 183.67 335.76 185.98 239.84 195.81 138.79 206.67 48.97 225.42 -18.11 251.64 -56.37 277.72 -59.83 309.26 -29.64 343.7 30.14 372.69 112.13 398.64 206.56 416.6 305.79 419.96 398.85 407.64 478.12 375.33 578.61 253.68 587.73 61.46 528.06 -145.79 421.1 -271.13 315.84 -256.12 240.87 -89.64 213.45 16.55 197.49 117.34 192.25 191.57 195.19 219.79 207.03 194.73 225.77 115.72 250.27 -3.34 278.86 -141.82 309.52 -270.96 343.17 -360.88 376.67 -391.56 408.58 -353.17 441.62 -255.62 471.83 -120.08 498.35 19.36 525.11 123.47 547.69 165.81 565.63 132.2 583.58 29.92 596.48 -110.47 604.68 -250.4 613.12 -355.91 617.37 -398.26 618.18 -369.16 620.11 -277.02 619.86 -145.01 618.78 -4.8 622.33 151.28 652.2 116.92 687.97 -36.46 722.69 -150.17 767.26 -241.97 822.35 -296.52 952.64 -272.31 1109.44 -97.73 1263.45 119.63 1370.18 296.83 1403.61 367.13 1340.51 344.16 1279.92 304.89 1204.26 257.42 1121.04 208.28 1042.62 156.05 975.26 110.46 928.62 74.11 911.6 42.36 926.74 21.58 975.13 10.95 1052.35 5.51 1150.74 8.17 1258.71 16.94 1361.56 28.58 1446.35 43.76 1500.31 60.83 1515.47 78.68 1488.34 96.91 1421.53 114.85Q1421.53 114.85 1421.53 114.85" opacity="0.40"></path><path d="M1369.58 366.05C1186.71 398.35 1000.65 457.36 892.36 540.07 901.25 621.24 1012.1 719.05 1167.7 816.9 1314.14 886.55 1389.56 918.8 1376.41 887.39 1283.98 801.84 1141.79 667.45 990.29 531.58 849.53 470.55 748.31 520.97 689.74 694.49 668.57 915.99 674.92 1083.96 692.08 1090.69 733.82 816.87 754.56 782.33 716.66 1120.14 684.35 1124.4 632.45 917.09 563.53 671.65 495.59 566.44 414.14 665.59 327.75 875.09 254.6 1056.48 195.04 1085.78 166.41 961.01 175.19 747.56 230.03 554.02 328.44 449.69 437.59 450.94 541.48 532.74 600.27 640.77 579.78 753.8 475.38 824.59 305.25 848.3 125.98 840.06 -3.26 802.3 -24.61 754.59 71.2 698.15 250.71 649.76 433.58 617.45 526.23 585.13 490.6 570.44 353.76 565.95 174.12 552.73 37.1 531.72 -6.15 483.99 53.26 404.3 192.9 280.31 361.22 117.49 518.59 -40.33 623.3 -168.53 665.38 -212.15 648.07 -150.19 591.75 5.02 522.65 184.84 443.85 275.99 383.86 217.75 349.27 12.7 326.5 -220.47 326.81 -338.05 343.38 -245.36 364.96 -12.41 393.9 188.38 426.21 184.19 458.52 -31.08 492.66 -269.56 532.01 -342.3 576.38 -202.02 634.85 45.06 713.6 228.24 804.18 245.22 917.38 106.23 1045.97 -81.61 1164.87 -221.51 1267.58 -233.63 1327.23 -130.26 1327.5 47.94 1261.09 228.72 1137.37 364.07 1002.69 445.28 892.02 466.24 856.29 452.57 923.23 410.71 1078.64 371.68 1270.75 351.44 1420.05 329.66 1462.23 333.74 1369.58 366.05Q1369.58 366.05 1369.58 366.05" opacity="0.21"></path><path d="M1317.58 682.32C1156.97 711.04 985.82 741.95 864.53 768.71 828.77 787.93 882.28 789.16 996.04 760.93 1137.86 713.78 1256.09 633.67 1320.98 532.24 1325.69 449.9 1268.7 399.83 1170.8 419.42 1045.56 521.06 919.73 693.14 809.86 887.47 714 1023.52 644.03 1046.22 595.85 930.72 562.1 739.71 539.39 567.92 519.69 526.38 503.98 653.96 483.46 882.5 454.74 1068.14 426.02 1084.32 390.47 922.55 352.01 695.18 317.54 535.41 288.02 530.14 271.99 661.18 270.41 854.76 293.08 998.41 344.68 1030.31 410.28 945.51 494.89 782.93 582.49 607.89 642.74 458.6 665.68 375 631.07 354.08 536.28 386.15 392.3 444.02 229.42 501.41 94.61 564.56 24.75 605.41 49.44 620.88 159.64 632.71 324.97 623.3 485.58 594.58 574.28 565.86 562.17 519.19 462.49 453.2 309.27 383.57 163.58 290.47 71.79 177.56 53.08 70.4 113.77 -34.75 229.52 -111.09 376.27 -134.43 517.66 -92.07 629.94 19.57 707.05 156.97 741.92 285.5 744.61 340.41 719.42 278.62 683.68 109.23 650.57 -105.39 612.16 -257.49 587.59 -268.61 580.42 -119.95 573.94 96.32 584.78 252.31 613.5 236.19 642.22 50.58 687.45 -172.14 748.1 -288.69 809.43 -236.1 886.25 -47.99 974.42 164.08 1057.31 300.65 1140.34 303.72 1209.79 197.59 1251.37 33.15 1257.73 -104.87 1218.26 -168.88 1143.62 -150.84 1036.27 -59.54 919.43 67.05 833.58 212.75 798.65 340.16 838.41 437.08 951.25 515.08 1113.28 566.09 1277.59 601.03 1388.35 628.43 1406.28 653.6 1317.58 682.32Q1317.58 682.32 1317.58 682.32" opacity="0.11"></path><path d="M1265.53 457.3C1127 482.43 974.25 485.83 849.81 468.84 781.9 451.94 782.96 416.82 843.1 370.97 947.96 337.57 1063.71 313.47 1163.18 317.96 1236.39 364.2 1264.91 458.43 1251 598.43 1201.26 751.99 1125.69 895.35 1039.09 982.47 942.49 980.98 851.98 884.5 773.95 720.01 699.07 561.63 638.5 471.7 591.51 504.6 546.67 655.02 511.96 859.45 486.83 1016.15 461.7 1041.27 447.34 923.28 444.79 729.34 444.39 548.1 459.24 460.21 490.58 489.25 525.06 615.84 574.18 775.23 632.06 903.39 679.92 967.9 719.42 946.1 736.23 857.52 717.2 722.9 658.88 580.88 559.51 458.4 433.87 357.14 295.58 292.19 172.31 256.06 93.75 240.75 78.39 237.04 136.6 232.91 251.34 233.66 399 223.76 537.53 198.63 620.61 173.5 627.48 134.34 563.04 86.19 444.45 42.92 311.15 0.93 198.51 -27.3 124.81 -34.72 110.13 -11.16 150.53 51.36 236.09 135.11 348.09 241.06 465.43 342.74 581.28 398.38 677.38 390.4 749.3 299.73 801.79 145.42 833.36 -36.49 851.35 -181.51 858.07 -229 861.84 -155.43 869.16 16.07 873.9 200.32 887.52 313.25 912.65 288.19 937.78 131.52 973.22 -67.82 1015.86 -208.57 1055.94 -231.81 1097.89 -127.61 1134.72 49.18 1160.29 232.1 1170.11 351.13 1156.35 378.79 1123.17 317.85 1063.15 204.28 980.24 83.66 895.83 -23.4 813.62 -81.56 754.21 -89.07 739.97 -54.83 777.17 10.64 869.27 87.59 1000.32 176.99 1147.92 257.82 1276.22 322.11 1350.37 386.5 1348.63 432.16 1265.58 457.29Q1265.53 457.3 1265.53 457.3" opacity="0.87"></path><path d="M1213.53 122.4C1096.77 143.94 965.04 161.13 846.37 177.33 760.35 197.8 720.99 225.38 728.86 267.5 780.52 323.25 859.27 401.94 947.27 504.6 1038.17 614.78 1111.54 733.13 1160.07 839.92 1187.25 909.45 1187.5 929.23 1166.68 884.44 1129.22 786.92 1081.1 650.98 1030.03 514.59 973.16 429.01 920.6 421.4 876.63 506.57 831.82 660.69 797.65 835.34 776.11 964.15 754.57 995.11 746.68 916.99 750.87 766.05 754.22 594.19 767.59 460.94 787.14 402.01 800.89 426.95 813.53 517.7 817.79 637.83 805.42 762.84 774.25 853.3 718.83 895.01 642.07 890.11 543.16 841.34 429.84 766.45 319.41 670.86 221.34 574.96 153.9 490.05 130.23 406.82 157.34 340.48 235.04 291.01 345.41 244.11 472.77 210.28 589.53 188.74 665.29 167.2 686.17 158.97 652.77 165.25 571.91 174.1 466.27 201.26 358.95 247.16 262.12 294.74 197.51 355.17 171.48 417.56 181.61 459.26 226.09 477.1 293.76 453.78 379.8 383.84 470.56 267.85 556.62 120.42 641.48 -22.13 713.97 -132.2 772.82 -172.95 826.28 -129.82 868.52 -8.85 901.78 154.67 932.97 297.31 958.86 371.1 980.4 340.19 1001.94 211.4 1018.12 41.12 1027.55 -104.71 1034.91 -181.59 1031.86 -161.75 1015.73 -60.39 994.21 91.77 957.2 247.03 905.53 366.99 852.68 434.22 792.83 439.98 735.02 398.68 695.58 320.13 676.62 232.7 688.9 155.71 737.36 86.25 821.27 43.03 933.88 24.6 1056.98 19.81 1174.89 31.41 1264.07 51.57 1305.81 75.98 1289.31 100.86 1213.58 122.39Q1213.53 122.4 1213.53 122.4" opacity="0.17"></path><path d="M1161.53 319.72C1066.09 337.67 957.16 369.99 851.72 415.57 761.54 461.52 698.14 520.73 665.99 590.2 697.6 717.3 810.83 832.91 930.76 848.96 1041.51 743.06 1091.56 533.85 1090.43 368.66 1081.47 362.59 1066.26 417.04 1048.08 527.3 1028.29 668.49 1008.62 809.84 990.67 912.15 972.72 945.8 957.34 901.7 943.28 797.07 927.61 657.88 910.17 519.94 888.03 412.99 826.94 349.91 720.86 473.18 563.07 641.66 396.08 783.54 244.78 816.4 186.85 776.72 205.84 741.28 259.03 702.87 342.29 667.95 440.8 630.8 546.09 601.83 641.53 583.88 708.34 565.93 738.1 559.85 729.72 563.16 684.72 564.23 614.44 569.97 531.7 574.31 356.62 551.78 252.35 462.89 241.17 273.96 303.17 58.43 409.71 -102.9 512.78 -66.14 567.67 27.65 615.39 155.37 653.81 287.64 692.26 385.34 721.06 425.8 739.01 392.15 756.96 289.84 763.21 152.13 758.61 17.86 754.04 -85.46 738.97 -129.69 715.19 -110.47 674.33 81.02 623.82 328.31 608.87 481.26 667.1 512.26 809.44 452.68 1010.83 387.8 1106.74 349.43 1187.23 322.87 1239.15 310.77 1254.47 299.04 1228.34 301.77 1161.53 319.72Q1161.53 319.72 1161.53 319.72" opacity="0.17"></path><path d="M1110.04 670.83C949.59 699.55 779.18 738.55 657.67 763.43 606.12 761.43 624 703.12 679.19 576.88 763.91 441.71 835.27 325.12 874.64 315.82 909.7 447.75 912.48 674.41 883.77 860.04 855.05 876.22 797.55 716.8 712.72 501.81 623.58 332.79 507.39 282.56 385.03 326.91 292.2 436.99 243.87 540.98 274.36 600.88 374.82 649.37 533.59 655.08 694.04 626.36 782.41 597.64 774.44 537.22 692.44 438.96 561 329.29 439.52 180.47 361.31 32.76 316.55 -49.23 319.41 -29.46 348.94 118.51 393.11 312.44 437.1 460.22 465.82 444.04 494.54 258.41 505.27 43.39 510.86 -67.47 531.11 -37.13 573.06 109.91 655.47 282.73 771.32 446.61 923.26 549.74 1075.75 601.5 1178.8 626.39 1198.41 642.12 1110.04 670.83Q1110.04 670.83 1110.04 670.83" opacity="0.36"></path><path d="M1057.53 502.69C940.77 524.22 809.98 509.72 695.41 462.62 606.71 415.42 555.63 343.9 536.67 273.31 544.31 242.98 563.26 263.95 577.62 358.07 597.68 506.75 600.61 679.35 579.07 808.15 557.53 839.11 513.56 761.74 456.17 621.73 404.49 458.81 351.93 325.93 316.06 245.62 306.78 210.29 335.02 211.97 407.93 223.81 506.71 248.37 628.77 256.39 745.53 234.85 821.29 213.31 844.61 164.26 821.14 102.37 756.46 53.19 676.88 17.9 604.81 25.01 532.35 77.08 484.38 187.11 463.34 334.25 447.79 458.47 452.12 527.11 473.66 496.15 495.19 367.34 531.89 203.48 584.76 70.59 643.13 -7.74 724.71 -5.86 825.4 52.69 925.7 151.51 1028.13 256.65 1108.61 341.17 1147.87 425.59 1133.3 481.14 1057.58 502.68Q1057.53 502.69 1057.53 502.69" opacity="0.39"></path><path d="M1005.58 137.53C844.97 166.25 676.33 169.33 566.05 220.82 491.84 347.79 453.93 570.53 425.22 756.14 396.5 772.32 382.41 617.46 418.98 444.76 491.61 280.65 636.97 188.57 797.58 159.85 886.27 131.13 887.49 171.22 845.32 297.69 768.83 432.75 725.4 564.32 754.12 548.14 782.84 362.53 878.26 163.07 992.39 73.75 1072.21 59.9 1094.27 108.82 1005.58 137.53Q1005.58 137.53 1005.58 137.53" opacity="0.52"></path></g></svg>